<?xml version="1.0" encoding="utf-8" standalone="no"?>
<!DOCTYPE svg PUBLIC "-//W3C//DTD SVG 1.1//EN"
  "http://www.w3.org/Graphics/SVG/1.1/DTD/svg11.dtd">
<svg xmlns:xlink="http://www.w3.org/1999/xlink" width="760.8pt" height="568.798125pt" viewBox="0 0 760.8 568.798125" xmlns="http://www.w3.org/2000/svg" version="1.1">
 <metadata>
  <rdf:RDF xmlns:dc="http://purl.org/dc/elements/1.1/" xmlns:cc="http://creativecommons.org/ns#" xmlns:rdf="http://www.w3.org/1999/02/22-rdf-syntax-ns#">
   <cc:Work>
    <dc:type rdf:resource="http://purl.org/dc/dcmitype/StillImage"/>
    <dc:date>2026-03-04T16:57:35.570596</dc:date>
    <dc:format>image/svg+xml</dc:format>
    <dc:creator>
     <cc:Agent>
      <dc:title>Matplotlib v3.9.4, https://matplotlib.org/</dc:title>
     </cc:Agent>
    </dc:creator>
   </cc:Work>
  </rdf:RDF>
 </metadata>
 <defs>
  <style type="text/css">*{stroke-linejoin: round; stroke-linecap: butt}</style>
 </defs>
 <g id="figure_1">
  <g id="patch_1">
   <path d="M 0 568.798125 
L 760.8 568.798125 
L 760.8 0 
L 0 0 
z
" style="fill: #fafafa"/>
  </g>
  <g id="axes_1">
   <g id="patch_2">
    <path d="M 340.969514 255.307062 
Q 506.092976 269.294127 663.547472 222.107489 
" clip-path="url(#pdb17f4df69)" style="fill: none; stroke: #b0b0b0; stroke-opacity: 0.7; stroke-width: 1.2; stroke-linecap: round"/>
    <path d="M 658.260537 221.186445 
L 663.547472 222.107489 
L 659.638475 225.78441 
z
" clip-path="url(#pdb17f4df69)" style="fill: #b0b0b0; fill-opacity: 0.7; stroke: #b0b0b0; stroke-opacity: 0.7; stroke-width: 1.2; stroke-linecap: round"/>
   </g>
   <g id="patch_3">
    <path d="M 325.397769 259.704357 
Q 217.883259 340.665428 147.799468 453.992273 
" clip-path="url(#pdb17f4df69)" style="fill: none; stroke: #b0b0b0; stroke-opacity: 0.7; stroke-width: 1.2; stroke-linecap: round"/>
    <path d="M 152.365331 451.172184 
L 147.799468 453.992273 
L 148.282915 448.647529 
z
" clip-path="url(#pdb17f4df69)" style="fill: #b0b0b0; fill-opacity: 0.7; stroke: #b0b0b0; stroke-opacity: 0.7; stroke-width: 1.2; stroke-linecap: round"/>
   </g>
   <g id="patch_4">
    <path d="M 326.130967 248.5094 
Q 249.160577 174.963954 152.212847 134.336291 
" clip-path="url(#pdb17f4df69)" style="fill: none; stroke: #b0b0b0; stroke-opacity: 0.7; stroke-width: 1.2; stroke-linecap: round"/>
    <path d="M 155.71223 138.404991 
L 152.212847 134.336291 
L 157.567437 133.978005 
z
" clip-path="url(#pdb17f4df69)" style="fill: #b0b0b0; fill-opacity: 0.7; stroke: #b0b0b0; stroke-opacity: 0.7; stroke-width: 1.2; stroke-linecap: round"/>
   </g>
   <g id="patch_5">
    <path d="M 347.831652 326.119619 
Q 346.678959 293.386386 335.932049 263.870069 
" clip-path="url(#pdb17f4df69)" style="fill: none; stroke: #b0b0b0; stroke-opacity: 0.7; stroke-width: 1.2; stroke-linecap: round"/>
    <path d="M 335.319097 269.201512 
L 335.932049 263.870069 
L 339.829433 267.559296 
z
" clip-path="url(#pdb17f4df69)" style="fill: #b0b0b0; fill-opacity: 0.7; stroke: #b0b0b0; stroke-opacity: 0.7; stroke-width: 1.2; stroke-linecap: round"/>
   </g>
   <g id="patch_6">
    <path d="M 356.336747 336.970163 
Q 516.339888 378.007718 678.911057 357.654645 
" clip-path="url(#pdb17f4df69)" style="fill: none; stroke: #b0b0b0; stroke-opacity: 0.7; stroke-width: 1.2; stroke-linecap: round"/>
    <path d="M 673.850097 355.869516 
L 678.911057 357.654645 
L 674.446378 360.632335 
z
" clip-path="url(#pdb17f4df69)" style="fill: #b0b0b0; fill-opacity: 0.7; stroke: #b0b0b0; stroke-opacity: 0.7; stroke-width: 1.2; stroke-linecap: round"/>
   </g>
   <g id="patch_7">
    <path d="M 343.760462 342.35211 
Q 301.705443 419.742986 289.818384 505.662212 
" clip-path="url(#pdb17f4df69)" style="fill: none; stroke: #b0b0b0; stroke-opacity: 0.7; stroke-width: 1.2; stroke-linecap: round"/>
    <path d="M 292.853561 501.236412 
L 289.818384 505.662212 
L 288.098851 500.578591 
z
" clip-path="url(#pdb17f4df69)" style="fill: #b0b0b0; fill-opacity: 0.7; stroke: #b0b0b0; stroke-opacity: 0.7; stroke-width: 1.2; stroke-linecap: round"/>
   </g>
   <g id="patch_8">
    <path d="M 340.510232 330.368476 
Q 221.126612 260.609465 85.875529 239.238591 
" clip-path="url(#pdb17f4df69)" style="fill: none; stroke: #b0b0b0; stroke-opacity: 0.7; stroke-width: 1.2; stroke-linecap: round"/>
    <path d="M 90.242134 242.358329 
L 85.875529 239.238591 
L 90.991282 237.61715 
z
" clip-path="url(#pdb17f4df69)" style="fill: #b0b0b0; fill-opacity: 0.7; stroke: #b0b0b0; stroke-opacity: 0.7; stroke-width: 1.2; stroke-linecap: round"/>
   </g>
   <g id="patch_9">
    <path d="M 392.456496 343.470242 
Q 372.44515 297.514846 339.242279 261.77639 
" clip-path="url(#pdb17f4df69)" style="fill: none; stroke: #b0b0b0; stroke-opacity: 0.7; stroke-width: 1.2; stroke-linecap: round"/>
    <path d="M 340.751068 266.926493 
L 339.242279 261.77639 
L 344.267635 263.659421 
z
" clip-path="url(#pdb17f4df69)" style="fill: #b0b0b0; fill-opacity: 0.7; stroke: #b0b0b0; stroke-opacity: 0.7; stroke-width: 1.2; stroke-linecap: round"/>
   </g>
   <g id="patch_10">
    <path d="M 396.989237 360.040277 
Q 408.600075 438.394122 446.199347 506.582843 
" clip-path="url(#pdb17f4df69)" style="fill: none; stroke: #b0b0b0; stroke-opacity: 0.7; stroke-width: 1.2; stroke-linecap: round"/>
    <path d="M 445.983294 501.22063 
L 446.199347 506.582843 
L 441.779945 503.538358 
z
" clip-path="url(#pdb17f4df69)" style="fill: #b0b0b0; fill-opacity: 0.7; stroke: #b0b0b0; stroke-opacity: 0.7; stroke-width: 1.2; stroke-linecap: round"/>
   </g>
   <g id="patch_11">
    <path d="M 402.441246 357.021322 
Q 486.132065 426.102728 587.742102 460.197069 
" clip-path="url(#pdb17f4df69)" style="fill: none; stroke: #b0b0b0; stroke-opacity: 0.7; stroke-width: 1.2; stroke-linecap: round"/>
    <path d="M 583.954912 456.394808 
L 587.742102 460.197069 
L 582.427979 460.945465 
z
" clip-path="url(#pdb17f4df69)" style="fill: #b0b0b0; fill-opacity: 0.7; stroke: #b0b0b0; stroke-opacity: 0.7; stroke-width: 1.2; stroke-linecap: round"/>
   </g>
   <g id="patch_12">
    <path d="M 387.278727 349.912238 
Q 233.497041 322.782305 81.766206 353.529272 
" clip-path="url(#pdb17f4df69)" style="fill: none; stroke: #b0b0b0; stroke-opacity: 0.7; stroke-width: 1.2; stroke-linecap: round"/>
    <path d="M 86.94724 354.92816 
L 81.766206 353.529272 
L 85.993937 350.223778 
z
" clip-path="url(#pdb17f4df69)" style="fill: #b0b0b0; fill-opacity: 0.7; stroke: #b0b0b0; stroke-opacity: 0.7; stroke-width: 1.2; stroke-linecap: round"/>
   </g>
   <g id="patch_13">
    <path d="M 400.280029 344.052569 
Q 472.009833 223.899066 494.889862 87.206671 
" clip-path="url(#pdb17f4df69)" style="fill: none; stroke: #b0b0b0; stroke-opacity: 0.7; stroke-width: 1.2; stroke-linecap: round"/>
    <path d="M 491.730376 91.544603 
L 494.889862 87.206671 
L 496.464515 92.337019 
z
" clip-path="url(#pdb17f4df69)" style="fill: #b0b0b0; fill-opacity: 0.7; stroke: #b0b0b0; stroke-opacity: 0.7; stroke-width: 1.2; stroke-linecap: round"/>
   </g>
   <g id="patch_14">
    <path d="M 389.785091 357.689615 
Q 327.110391 423.684598 292.332504 506.33782 
" clip-path="url(#pdb17f4df69)" style="fill: none; stroke: #b0b0b0; stroke-opacity: 0.7; stroke-width: 1.2; stroke-linecap: round"/>
    <path d="M 296.406259 502.844325 
L 292.332504 506.33782 
L 291.981961 500.982718 
z
" clip-path="url(#pdb17f4df69)" style="fill: #b0b0b0; fill-opacity: 0.7; stroke: #b0b0b0; stroke-opacity: 0.7; stroke-width: 1.2; stroke-linecap: round"/>
   </g>
   <g id="text_1">
    <g id="patch_15">
     <path d="M 483.684837 241.944109 
L 522.425099 237.73037 
Q 522.922167 237.676304 522.868101 237.179236 
L 522.32981 232.2303 
Q 522.275745 231.733231 521.778676 231.787297 
L 483.038415 236.001036 
Q 482.541346 236.055102 482.595412 236.55217 
L 483.133703 241.501107 
Q 483.187769 241.998175 483.684837 241.944109 
z
" clip-path="url(#pdb17f4df69)" style="fill: #ffffff; opacity: 0.7"/>
    </g>
    <g clip-path="url(#pdb17f4df69)">
     <!-- decomposes_to -->
     <g style="fill: #666666" transform="translate(483.503295 240.275047) rotate(-6.207601) scale(0.05 -0.05)">
      <defs>
       <path id="DejaVuSans-64" d="M 2906 2969 
L 2906 4863 
L 3481 4863 
L 3481 0 
L 2906 0 
L 2906 525 
Q 2725 213 2448 61 
Q 2172 -91 1784 -91 
Q 1150 -91 751 415 
Q 353 922 353 1747 
Q 353 2572 751 3078 
Q 1150 3584 1784 3584 
Q 2172 3584 2448 3432 
Q 2725 3281 2906 2969 
z
M 947 1747 
Q 947 1113 1208 752 
Q 1469 391 1925 391 
Q 2381 391 2643 752 
Q 2906 1113 2906 1747 
Q 2906 2381 2643 2742 
Q 2381 3103 1925 3103 
Q 1469 3103 1208 2742 
Q 947 2381 947 1747 
z
" transform="scale(0.015625)"/>
       <path id="DejaVuSans-65" d="M 3597 1894 
L 3597 1613 
L 953 1613 
Q 991 1019 1311 708 
Q 1631 397 2203 397 
Q 2534 397 2845 478 
Q 3156 559 3463 722 
L 3463 178 
Q 3153 47 2828 -22 
Q 2503 -91 2169 -91 
Q 1331 -91 842 396 
Q 353 884 353 1716 
Q 353 2575 817 3079 
Q 1281 3584 2069 3584 
Q 2775 3584 3186 3129 
Q 3597 2675 3597 1894 
z
M 3022 2063 
Q 3016 2534 2758 2815 
Q 2500 3097 2075 3097 
Q 1594 3097 1305 2825 
Q 1016 2553 972 2059 
L 3022 2063 
z
" transform="scale(0.015625)"/>
       <path id="DejaVuSans-63" d="M 3122 3366 
L 3122 2828 
Q 2878 2963 2633 3030 
Q 2388 3097 2138 3097 
Q 1578 3097 1268 2742 
Q 959 2388 959 1747 
Q 959 1106 1268 751 
Q 1578 397 2138 397 
Q 2388 397 2633 464 
Q 2878 531 3122 666 
L 3122 134 
Q 2881 22 2623 -34 
Q 2366 -91 2075 -91 
Q 1284 -91 818 406 
Q 353 903 353 1747 
Q 353 2603 823 3093 
Q 1294 3584 2113 3584 
Q 2378 3584 2631 3529 
Q 2884 3475 3122 3366 
z
" transform="scale(0.015625)"/>
       <path id="DejaVuSans-6f" d="M 1959 3097 
Q 1497 3097 1228 2736 
Q 959 2375 959 1747 
Q 959 1119 1226 758 
Q 1494 397 1959 397 
Q 2419 397 2687 759 
Q 2956 1122 2956 1747 
Q 2956 2369 2687 2733 
Q 2419 3097 1959 3097 
z
M 1959 3584 
Q 2709 3584 3137 3096 
Q 3566 2609 3566 1747 
Q 3566 888 3137 398 
Q 2709 -91 1959 -91 
Q 1206 -91 779 398 
Q 353 888 353 1747 
Q 353 2609 779 3096 
Q 1206 3584 1959 3584 
z
" transform="scale(0.015625)"/>
       <path id="DejaVuSans-6d" d="M 3328 2828 
Q 3544 3216 3844 3400 
Q 4144 3584 4550 3584 
Q 5097 3584 5394 3201 
Q 5691 2819 5691 2113 
L 5691 0 
L 5113 0 
L 5113 2094 
Q 5113 2597 4934 2840 
Q 4756 3084 4391 3084 
Q 3944 3084 3684 2787 
Q 3425 2491 3425 1978 
L 3425 0 
L 2847 0 
L 2847 2094 
Q 2847 2600 2669 2842 
Q 2491 3084 2119 3084 
Q 1678 3084 1418 2786 
Q 1159 2488 1159 1978 
L 1159 0 
L 581 0 
L 581 3500 
L 1159 3500 
L 1159 2956 
Q 1356 3278 1631 3431 
Q 1906 3584 2284 3584 
Q 2666 3584 2933 3390 
Q 3200 3197 3328 2828 
z
" transform="scale(0.015625)"/>
       <path id="DejaVuSans-70" d="M 1159 525 
L 1159 -1331 
L 581 -1331 
L 581 3500 
L 1159 3500 
L 1159 2969 
Q 1341 3281 1617 3432 
Q 1894 3584 2278 3584 
Q 2916 3584 3314 3078 
Q 3713 2572 3713 1747 
Q 3713 922 3314 415 
Q 2916 -91 2278 -91 
Q 1894 -91 1617 61 
Q 1341 213 1159 525 
z
M 3116 1747 
Q 3116 2381 2855 2742 
Q 2594 3103 2138 3103 
Q 1681 3103 1420 2742 
Q 1159 2381 1159 1747 
Q 1159 1113 1420 752 
Q 1681 391 2138 391 
Q 2594 391 2855 752 
Q 3116 1113 3116 1747 
z
" transform="scale(0.015625)"/>
       <path id="DejaVuSans-73" d="M 2834 3397 
L 2834 2853 
Q 2591 2978 2328 3040 
Q 2066 3103 1784 3103 
Q 1356 3103 1142 2972 
Q 928 2841 928 2578 
Q 928 2378 1081 2264 
Q 1234 2150 1697 2047 
L 1894 2003 
Q 2506 1872 2764 1633 
Q 3022 1394 3022 966 
Q 3022 478 2636 193 
Q 2250 -91 1575 -91 
Q 1294 -91 989 -36 
Q 684 19 347 128 
L 347 722 
Q 666 556 975 473 
Q 1284 391 1588 391 
Q 1994 391 2212 530 
Q 2431 669 2431 922 
Q 2431 1156 2273 1281 
Q 2116 1406 1581 1522 
L 1381 1569 
Q 847 1681 609 1914 
Q 372 2147 372 2553 
Q 372 3047 722 3315 
Q 1072 3584 1716 3584 
Q 2034 3584 2315 3537 
Q 2597 3491 2834 3397 
z
" transform="scale(0.015625)"/>
       <path id="DejaVuSans-5f" d="M 3263 -1063 
L 3263 -1509 
L -63 -1509 
L -63 -1063 
L 3263 -1063 
z
" transform="scale(0.015625)"/>
       <path id="DejaVuSans-74" d="M 1172 4494 
L 1172 3500 
L 2356 3500 
L 2356 3053 
L 1172 3053 
L 1172 1153 
Q 1172 725 1289 603 
Q 1406 481 1766 481 
L 2356 481 
L 2356 0 
L 1766 0 
Q 1100 0 847 248 
Q 594 497 594 1153 
L 594 3053 
L 172 3053 
L 172 3500 
L 594 3500 
L 594 4494 
L 1172 4494 
z
" transform="scale(0.015625)"/>
      </defs>
      <use xlink:href="#DejaVuSans-64"/>
      <use xlink:href="#DejaVuSans-65" x="63.476562"/>
      <use xlink:href="#DejaVuSans-63" x="125"/>
      <use xlink:href="#DejaVuSans-6f" x="179.980469"/>
      <use xlink:href="#DejaVuSans-6d" x="241.162109"/>
      <use xlink:href="#DejaVuSans-70" x="338.574219"/>
      <use xlink:href="#DejaVuSans-6f" x="402.050781"/>
      <use xlink:href="#DejaVuSans-73" x="463.232422"/>
      <use xlink:href="#DejaVuSans-65" x="515.332031"/>
      <use xlink:href="#DejaVuSans-73" x="576.855469"/>
      <use xlink:href="#DejaVuSans-5f" x="628.955078"/>
      <use xlink:href="#DejaVuSans-74" x="678.955078"/>
      <use xlink:href="#DejaVuSans-6f" x="718.164062"/>
     </g>
    </g>
   </g>
   <g id="text_2">
    <g id="patch_16">
     <path d="M 226.931024 375.193549 
L 252.506591 345.791953 
Q 252.834746 345.414707 252.4575 345.086552 
L 248.701546 341.819361 
Q 248.3243 341.491206 247.996146 341.868452 
L 222.420578 371.270048 
Q 222.092423 371.647293 222.469669 371.975448 
L 226.225623 375.24264 
Q 226.602869 375.570795 226.931024 375.193549 
z
" clip-path="url(#pdb17f4df69)" style="fill: #ffffff; opacity: 0.7"/>
    </g>
    <g clip-path="url(#pdb17f4df69)">
     <!-- decomposes_to -->
     <g style="fill: #666666" transform="translate(225.664303 374.091666) rotate(-48.98097) scale(0.05 -0.05)">
      <use xlink:href="#DejaVuSans-64"/>
      <use xlink:href="#DejaVuSans-65" x="63.476562"/>
      <use xlink:href="#DejaVuSans-63" x="125"/>
      <use xlink:href="#DejaVuSans-6f" x="179.980469"/>
      <use xlink:href="#DejaVuSans-6d" x="241.162109"/>
      <use xlink:href="#DejaVuSans-70" x="338.574219"/>
      <use xlink:href="#DejaVuSans-6f" x="402.050781"/>
      <use xlink:href="#DejaVuSans-73" x="463.232422"/>
      <use xlink:href="#DejaVuSans-65" x="515.332031"/>
      <use xlink:href="#DejaVuSans-73" x="576.855469"/>
      <use xlink:href="#DejaVuSans-5f" x="628.955078"/>
      <use xlink:href="#DejaVuSans-74" x="678.955078"/>
      <use xlink:href="#DejaVuSans-6f" x="718.164062"/>
     </g>
    </g>
   </g>
   <g id="text_3">
    <g id="patch_17">
     <path d="M 219.900251 183.964526 
L 252.022892 206.025792 
Q 252.435051 206.308856 252.718114 205.896697 
L 255.536366 201.793139 
Q 255.819429 201.38098 255.40727 201.097917 
L 223.28463 179.036651 
Q 222.872471 178.753587 222.589408 179.165746 
L 219.771156 183.269304 
Q 219.488092 183.681463 219.900251 183.964526 
z
" clip-path="url(#pdb17f4df69)" style="fill: #ffffff; opacity: 0.7"/>
    </g>
    <g clip-path="url(#pdb17f4df69)">
     <!-- decomposes_to -->
     <g style="fill: #666666" transform="translate(220.850726 182.580574) rotate(-325.519403) scale(0.05 -0.05)">
      <use xlink:href="#DejaVuSans-64"/>
      <use xlink:href="#DejaVuSans-65" x="63.476562"/>
      <use xlink:href="#DejaVuSans-63" x="125"/>
      <use xlink:href="#DejaVuSans-6f" x="179.980469"/>
      <use xlink:href="#DejaVuSans-6d" x="241.162109"/>
      <use xlink:href="#DejaVuSans-70" x="338.574219"/>
      <use xlink:href="#DejaVuSans-6f" x="402.050781"/>
      <use xlink:href="#DejaVuSans-73" x="463.232422"/>
      <use xlink:href="#DejaVuSans-65" x="515.332031"/>
      <use xlink:href="#DejaVuSans-73" x="576.855469"/>
      <use xlink:href="#DejaVuSans-5f" x="628.955078"/>
      <use xlink:href="#DejaVuSans-74" x="678.955078"/>
      <use xlink:href="#DejaVuSans-6f" x="718.164062"/>
     </g>
    </g>
   </g>
   <g id="text_4">
    <g id="patch_18">
     <path d="M 335.417638 285.134621 
L 339.148513 305.244591 
Q 339.239719 305.736202 339.73133 305.644997 
L 344.489205 304.762298 
Q 344.980816 304.671093 344.88961 304.179482 
L 341.158735 284.069512 
Q 341.067529 283.577901 340.575918 283.669106 
L 335.818043 284.551804 
Q 335.326432 284.64301 335.417638 285.134621 
z
" clip-path="url(#pdb17f4df69)" style="fill: #ffffff; opacity: 0.7"/>
    </g>
    <g clip-path="url(#pdb17f4df69)">
     <!-- satisfies -->
     <g style="fill: #666666" transform="translate(336.931647 284.853737) rotate(-280.510228) scale(0.05 -0.05)">
      <defs>
       <path id="DejaVuSans-61" d="M 2194 1759 
Q 1497 1759 1228 1600 
Q 959 1441 959 1056 
Q 959 750 1161 570 
Q 1363 391 1709 391 
Q 2188 391 2477 730 
Q 2766 1069 2766 1631 
L 2766 1759 
L 2194 1759 
z
M 3341 1997 
L 3341 0 
L 2766 0 
L 2766 531 
Q 2569 213 2275 61 
Q 1981 -91 1556 -91 
Q 1019 -91 701 211 
Q 384 513 384 1019 
Q 384 1609 779 1909 
Q 1175 2209 1959 2209 
L 2766 2209 
L 2766 2266 
Q 2766 2663 2505 2880 
Q 2244 3097 1772 3097 
Q 1472 3097 1187 3025 
Q 903 2953 641 2809 
L 641 3341 
Q 956 3463 1253 3523 
Q 1550 3584 1831 3584 
Q 2591 3584 2966 3190 
Q 3341 2797 3341 1997 
z
" transform="scale(0.015625)"/>
       <path id="DejaVuSans-69" d="M 603 3500 
L 1178 3500 
L 1178 0 
L 603 0 
L 603 3500 
z
M 603 4863 
L 1178 4863 
L 1178 4134 
L 603 4134 
L 603 4863 
z
" transform="scale(0.015625)"/>
       <path id="DejaVuSans-66" d="M 2375 4863 
L 2375 4384 
L 1825 4384 
Q 1516 4384 1395 4259 
Q 1275 4134 1275 3809 
L 1275 3500 
L 2222 3500 
L 2222 3053 
L 1275 3053 
L 1275 0 
L 697 0 
L 697 3053 
L 147 3053 
L 147 3500 
L 697 3500 
L 697 3744 
Q 697 4328 969 4595 
Q 1241 4863 1831 4863 
L 2375 4863 
z
" transform="scale(0.015625)"/>
      </defs>
      <use xlink:href="#DejaVuSans-73"/>
      <use xlink:href="#DejaVuSans-61" x="52.099609"/>
      <use xlink:href="#DejaVuSans-74" x="113.378906"/>
      <use xlink:href="#DejaVuSans-69" x="152.587891"/>
      <use xlink:href="#DejaVuSans-73" x="180.371094"/>
      <use xlink:href="#DejaVuSans-66" x="232.470703"/>
      <use xlink:href="#DejaVuSans-69" x="267.675781"/>
      <use xlink:href="#DejaVuSans-65" x="295.458984"/>
      <use xlink:href="#DejaVuSans-73" x="356.982422"/>
     </g>
    </g>
   </g>
   <g id="text_5">
    <g id="patch_19">
     <path d="M 507.997707 347.810179 
L 528.40584 349.166069 
Q 528.90474 349.199216 528.937886 348.700316 
L 529.25868 343.871898 
Q 529.291826 343.372998 528.792926 343.339852 
L 508.384793 341.983961 
Q 507.885893 341.950815 507.852747 342.449715 
L 507.531953 347.278133 
Q 507.498807 347.777033 507.997707 347.810179 
z
" clip-path="url(#pdb17f4df69)" style="fill: #ffffff; opacity: 0.7"/>
    </g>
    <g clip-path="url(#pdb17f4df69)">
     <!-- satisfies -->
     <g style="fill: #666666" transform="translate(508.099787 346.273723) rotate(-356.198928) scale(0.05 -0.05)">
      <use xlink:href="#DejaVuSans-73"/>
      <use xlink:href="#DejaVuSans-61" x="52.099609"/>
      <use xlink:href="#DejaVuSans-74" x="113.378906"/>
      <use xlink:href="#DejaVuSans-69" x="152.587891"/>
      <use xlink:href="#DejaVuSans-73" x="180.371094"/>
      <use xlink:href="#DejaVuSans-66" x="232.470703"/>
      <use xlink:href="#DejaVuSans-69" x="267.675781"/>
      <use xlink:href="#DejaVuSans-65" x="295.458984"/>
      <use xlink:href="#DejaVuSans-73" x="356.982422"/>
     </g>
    </g>
   </g>
   <g id="text_6">
    <g id="patch_20">
     <path d="M 317.862104 436.151406 
L 324.192071 415.956133 
Q 324.341616 415.47902 323.864504 415.329475 
L 319.246951 413.882158 
Q 318.769838 413.732613 318.620293 414.209725 
L 312.290326 434.404998 
Q 312.140781 434.882111 312.617893 435.031656 
L 317.235446 436.478973 
Q 317.712559 436.628518 317.862104 436.151406 
z
" clip-path="url(#pdb17f4df69)" style="fill: #ffffff; opacity: 0.7"/>
    </g>
    <g clip-path="url(#pdb17f4df69)">
     <!-- contains -->
     <g style="fill: #666666" transform="translate(316.392747 435.690853) rotate(-72.597023) scale(0.05 -0.05)">
      <defs>
       <path id="DejaVuSans-6e" d="M 3513 2113 
L 3513 0 
L 2938 0 
L 2938 2094 
Q 2938 2591 2744 2837 
Q 2550 3084 2163 3084 
Q 1697 3084 1428 2787 
Q 1159 2491 1159 1978 
L 1159 0 
L 581 0 
L 581 3500 
L 1159 3500 
L 1159 2956 
Q 1366 3272 1645 3428 
Q 1925 3584 2291 3584 
Q 2894 3584 3203 3211 
Q 3513 2838 3513 2113 
z
" transform="scale(0.015625)"/>
      </defs>
      <use xlink:href="#DejaVuSans-63"/>
      <use xlink:href="#DejaVuSans-6f" x="54.980469"/>
      <use xlink:href="#DejaVuSans-6e" x="116.162109"/>
      <use xlink:href="#DejaVuSans-74" x="179.541016"/>
      <use xlink:href="#DejaVuSans-61" x="218.75"/>
      <use xlink:href="#DejaVuSans-69" x="280.029297"/>
      <use xlink:href="#DejaVuSans-6e" x="307.8125"/>
      <use xlink:href="#DejaVuSans-73" x="371.191406"/>
     </g>
    </g>
   </g>
   <g id="text_7">
    <g id="patch_21">
     <path d="M 201.042849 285.277797 
L 220.864023 292.696598 
Q 221.332297 292.871866 221.507566 292.403592 
L 223.20384 287.871575 
Q 223.379109 287.4033 222.910834 287.228032 
L 203.08966 279.809231 
Q 202.621386 279.633962 202.446117 280.102236 
L 200.749844 284.634254 
Q 200.574575 285.102528 201.042849 285.277797 
z
" clip-path="url(#pdb17f4df69)" style="fill: #ffffff; opacity: 0.7"/>
    </g>
    <g clip-path="url(#pdb17f4df69)">
     <!-- contains -->
     <g style="fill: #666666" transform="translate(201.582622 283.835658) rotate(-339.479796) scale(0.05 -0.05)">
      <use xlink:href="#DejaVuSans-63"/>
      <use xlink:href="#DejaVuSans-6f" x="54.980469"/>
      <use xlink:href="#DejaVuSans-6e" x="116.162109"/>
      <use xlink:href="#DejaVuSans-74" x="179.541016"/>
      <use xlink:href="#DejaVuSans-61" x="218.75"/>
      <use xlink:href="#DejaVuSans-69" x="280.029297"/>
      <use xlink:href="#DejaVuSans-6e" x="307.8125"/>
      <use xlink:href="#DejaVuSans-73" x="371.191406"/>
     </g>
    </g>
   </g>
   <g id="text_8">
    <g id="patch_22">
     <path d="M 356.182123 295.868267 
L 367.012041 313.218863 
Q 367.276791 313.643018 367.700946 313.378269 
L 371.805972 310.815988 
Q 372.230127 310.551238 371.965378 310.127083 
L 361.135459 292.776486 
Q 360.87071 292.352331 360.446555 292.617081 
L 356.341528 295.179362 
Q 355.917373 295.444112 356.182123 295.868267 
z
" clip-path="url(#pdb17f4df69)" style="fill: #ffffff; opacity: 0.7"/>
    </g>
    <g clip-path="url(#pdb17f4df69)">
     <!-- satisfies -->
     <g style="fill: #666666" transform="translate(357.488388 295.05292) rotate(-301.97164) scale(0.05 -0.05)">
      <use xlink:href="#DejaVuSans-73"/>
      <use xlink:href="#DejaVuSans-61" x="52.099609"/>
      <use xlink:href="#DejaVuSans-74" x="113.378906"/>
      <use xlink:href="#DejaVuSans-69" x="152.587891"/>
      <use xlink:href="#DejaVuSans-73" x="180.371094"/>
      <use xlink:href="#DejaVuSans-66" x="232.470703"/>
      <use xlink:href="#DejaVuSans-69" x="267.675781"/>
      <use xlink:href="#DejaVuSans-65" x="295.458984"/>
      <use xlink:href="#DejaVuSans-73" x="356.982422"/>
     </g>
    </g>
   </g>
   <g id="text_9">
    <g id="patch_23">
     <path d="M 417.538943 424.539903 
L 423.804289 444.009771 
Q 423.957453 444.485734 424.433416 444.332571 
L 429.039847 442.850235 
Q 429.51581 442.697071 429.362646 442.221108 
L 423.0973 422.75124 
Q 422.944137 422.275277 422.468174 422.42844 
L 417.861743 423.910776 
Q 417.38578 424.06394 417.538943 424.539903 
z
" clip-path="url(#pdb17f4df69)" style="fill: #ffffff; opacity: 0.7"/>
    </g>
    <g clip-path="url(#pdb17f4df69)">
     <!-- satisfies -->
     <g style="fill: #666666" transform="translate(419.004761 424.068207) rotate(-287.838021) scale(0.05 -0.05)">
      <use xlink:href="#DejaVuSans-73"/>
      <use xlink:href="#DejaVuSans-61" x="52.099609"/>
      <use xlink:href="#DejaVuSans-74" x="113.378906"/>
      <use xlink:href="#DejaVuSans-69" x="152.587891"/>
      <use xlink:href="#DejaVuSans-73" x="180.371094"/>
      <use xlink:href="#DejaVuSans-66" x="232.470703"/>
      <use xlink:href="#DejaVuSans-69" x="267.675781"/>
      <use xlink:href="#DejaVuSans-65" x="295.458984"/>
      <use xlink:href="#DejaVuSans-73" x="356.982422"/>
     </g>
    </g>
   </g>
   <g id="text_10">
    <g id="patch_24">
     <path d="M 485.908275 404.587048 
L 504.196563 415.238625 
Q 504.628623 415.490268 504.880266 415.058208 
L 507.315698 410.876678 
Q 507.567341 410.444618 507.135281 410.192975 
L 488.846994 399.541398 
Q 488.414934 399.289755 488.163291 399.721815 
L 485.727858 403.903345 
Q 485.476215 404.335405 485.908275 404.587048 
z
" clip-path="url(#pdb17f4df69)" style="fill: #ffffff; opacity: 0.7"/>
    </g>
    <g clip-path="url(#pdb17f4df69)">
     <!-- contains -->
     <g style="fill: #666666" transform="translate(486.683257 403.256439) rotate(-329.78236) scale(0.05 -0.05)">
      <use xlink:href="#DejaVuSans-63"/>
      <use xlink:href="#DejaVuSans-6f" x="54.980469"/>
      <use xlink:href="#DejaVuSans-6e" x="116.162109"/>
      <use xlink:href="#DejaVuSans-74" x="179.541016"/>
      <use xlink:href="#DejaVuSans-61" x="218.75"/>
      <use xlink:href="#DejaVuSans-69" x="280.029297"/>
      <use xlink:href="#DejaVuSans-6e" x="307.8125"/>
      <use xlink:href="#DejaVuSans-73" x="371.191406"/>
     </g>
    </g>
   </g>
   <g id="text_11">
    <g id="patch_25">
     <path d="M 223.343347 356.569437 
L 244.505545 356.288495 
Q 245.005501 356.281858 244.998864 355.781902 
L 244.934627 350.943265 
Q 244.92799 350.44331 244.428034 350.449947 
L 223.265837 350.730889 
Q 222.765881 350.737526 222.772518 351.237482 
L 222.836754 356.076118 
Q 222.843391 356.576074 223.343347 356.569437 
z
" clip-path="url(#pdb17f4df69)" style="fill: #ffffff; opacity: 0.7"/>
    </g>
    <g clip-path="url(#pdb17f4df69)">
     <!-- contains -->
     <g style="fill: #666666" transform="translate(223.322907 355.029729) rotate(-0.760595) scale(0.05 -0.05)">
      <use xlink:href="#DejaVuSans-63"/>
      <use xlink:href="#DejaVuSans-6f" x="54.980469"/>
      <use xlink:href="#DejaVuSans-6e" x="116.162109"/>
      <use xlink:href="#DejaVuSans-74" x="179.541016"/>
      <use xlink:href="#DejaVuSans-61" x="218.75"/>
      <use xlink:href="#DejaVuSans-69" x="280.029297"/>
      <use xlink:href="#DejaVuSans-6e" x="307.8125"/>
      <use xlink:href="#DejaVuSans-73" x="371.191406"/>
     </g>
    </g>
   </g>
   <g id="text_12">
    <g id="patch_26">
     <path d="M 444.921531 226.94006 
L 453.014776 203.830311 
Q 453.180039 203.358413 452.70814 203.193149 
L 448.009802 201.547748 
Q 447.537904 201.382485 447.37264 201.854384 
L 439.279395 224.964133 
Q 439.114132 225.436032 439.586031 225.601295 
L 444.284369 227.246696 
Q 444.756267 227.411959 444.921531 226.94006 
z
" clip-path="url(#pdb17f4df69)" style="fill: #ffffff; opacity: 0.7"/>
    </g>
    <g clip-path="url(#pdb17f4df69)">
     <!-- tested_by -->
     <g style="fill: #666666" transform="translate(443.336984 226.385138) rotate(-70.69928) scale(0.05 -0.05)">
      <defs>
       <path id="DejaVuSans-62" d="M 3116 1747 
Q 3116 2381 2855 2742 
Q 2594 3103 2138 3103 
Q 1681 3103 1420 2742 
Q 1159 2381 1159 1747 
Q 1159 1113 1420 752 
Q 1681 391 2138 391 
Q 2594 391 2855 752 
Q 3116 1113 3116 1747 
z
M 1159 2969 
Q 1341 3281 1617 3432 
Q 1894 3584 2278 3584 
Q 2916 3584 3314 3078 
Q 3713 2572 3713 1747 
Q 3713 922 3314 415 
Q 2916 -91 2278 -91 
Q 1894 -91 1617 61 
Q 1341 213 1159 525 
L 1159 0 
L 581 0 
L 581 4863 
L 1159 4863 
L 1159 2969 
z
" transform="scale(0.015625)"/>
       <path id="DejaVuSans-79" d="M 2059 -325 
Q 1816 -950 1584 -1140 
Q 1353 -1331 966 -1331 
L 506 -1331 
L 506 -850 
L 844 -850 
Q 1081 -850 1212 -737 
Q 1344 -625 1503 -206 
L 1606 56 
L 191 3500 
L 800 3500 
L 1894 763 
L 2988 3500 
L 3597 3500 
L 2059 -325 
z
" transform="scale(0.015625)"/>
      </defs>
      <use xlink:href="#DejaVuSans-74"/>
      <use xlink:href="#DejaVuSans-65" x="39.208984"/>
      <use xlink:href="#DejaVuSans-73" x="100.732422"/>
      <use xlink:href="#DejaVuSans-74" x="152.832031"/>
      <use xlink:href="#DejaVuSans-65" x="192.041016"/>
      <use xlink:href="#DejaVuSans-64" x="253.564453"/>
      <use xlink:href="#DejaVuSans-5f" x="317.041016"/>
      <use xlink:href="#DejaVuSans-62" x="367.041016"/>
      <use xlink:href="#DejaVuSans-79" x="430.517578"/>
     </g>
    </g>
   </g>
   <g id="text_13">
    <g id="patch_27">
     <path d="M 336.704579 447.928468 
L 352.691588 422.275776 
Q 352.956041 421.851436 352.531701 421.586983 
L 348.306863 418.954023 
Q 347.882523 418.68957 347.61807 419.11391 
L 331.631061 444.766602 
Q 331.366608 445.190943 331.790949 445.455395 
L 336.015786 448.088355 
Q 336.440126 448.352808 336.704579 447.928468 
z
" clip-path="url(#pdb17f4df69)" style="fill: #ffffff; opacity: 0.7"/>
    </g>
    <g clip-path="url(#pdb17f4df69)">
     <!-- powered_by -->
     <g style="fill: #666666" transform="translate(335.279724 447.040485) rotate(-58.068436) scale(0.05 -0.05)">
      <defs>
       <path id="DejaVuSans-77" d="M 269 3500 
L 844 3500 
L 1563 769 
L 2278 3500 
L 2956 3500 
L 3675 769 
L 4391 3500 
L 4966 3500 
L 4050 0 
L 3372 0 
L 2619 2869 
L 1863 0 
L 1184 0 
L 269 3500 
z
" transform="scale(0.015625)"/>
       <path id="DejaVuSans-72" d="M 2631 2963 
Q 2534 3019 2420 3045 
Q 2306 3072 2169 3072 
Q 1681 3072 1420 2755 
Q 1159 2438 1159 1844 
L 1159 0 
L 581 0 
L 581 3500 
L 1159 3500 
L 1159 2956 
Q 1341 3275 1631 3429 
Q 1922 3584 2338 3584 
Q 2397 3584 2469 3576 
Q 2541 3569 2628 3553 
L 2631 2963 
z
" transform="scale(0.015625)"/>
      </defs>
      <use xlink:href="#DejaVuSans-70"/>
      <use xlink:href="#DejaVuSans-6f" x="63.476562"/>
      <use xlink:href="#DejaVuSans-77" x="124.658203"/>
      <use xlink:href="#DejaVuSans-65" x="206.445312"/>
      <use xlink:href="#DejaVuSans-72" x="267.96875"/>
      <use xlink:href="#DejaVuSans-65" x="306.832031"/>
      <use xlink:href="#DejaVuSans-64" x="368.355469"/>
      <use xlink:href="#DejaVuSans-5f" x="431.832031"/>
      <use xlink:href="#DejaVuSans-62" x="481.832031"/>
      <use xlink:href="#DejaVuSans-79" x="545.308594"/>
     </g>
    </g>
   </g>
   <g id="PathCollection_1">
    <path d="M 332.346367 269.535063 
C 336.324413 269.535063 340.140065 267.954569 342.952969 265.141665 
C 345.765872 262.328762 347.346367 258.51311 347.346367 254.535063 
C 347.346367 250.557017 345.765872 246.741365 342.952969 243.928462 
C 340.140065 241.115558 336.324413 239.535063 332.346367 239.535063 
C 328.36832 239.535063 324.552669 241.115558 321.739765 243.928462 
C 318.926862 246.741365 317.346367 250.557017 317.346367 254.535063 
C 317.346367 258.51311 318.926862 262.328762 321.739765 265.141665 
C 324.552669 267.954569 328.36832 269.535063 332.346367 269.535063 
z
" clip-path="url(#pdb17f4df69)" style="fill: #7c3aed; stroke: #333333; stroke-width: 0.8"/>
    <path d="M 673.117146 229.802945 
C 675.93005 229.802945 678.628123 228.685366 680.617146 226.696343 
C 682.60617 224.70732 683.723748 222.009246 683.723748 219.196343 
C 683.723748 216.383439 682.60617 213.685366 680.617146 211.696343 
C 678.628123 209.70732 675.93005 208.589741 673.117146 208.589741 
C 670.304243 208.589741 667.60617 209.70732 665.617146 211.696343 
C 663.628123 213.685366 662.510545 216.383439 662.510545 219.196343 
C 662.510545 222.009246 663.628123 224.70732 665.617146 226.696343 
C 667.60617 228.685366 670.304243 229.802945 673.117146 229.802945 
z
" clip-path="url(#pdb17f4df69)" style="fill: #3b82f6; stroke: #333333; stroke-width: 0.8"/>
    <path d="M 142.580802 473.133539 
C 145.393706 473.133539 148.091779 472.01596 150.080802 470.026937 
C 152.069825 468.037914 153.187404 465.339841 153.187404 462.526937 
C 153.187404 459.714033 152.069825 457.01596 150.080802 455.026937 
C 148.091779 453.037914 145.393706 451.920335 142.580802 451.920335 
C 139.767899 451.920335 137.069825 453.037914 135.080802 455.026937 
C 133.091779 457.01596 131.9742 459.714033 131.9742 462.526937 
C 131.9742 465.339841 133.091779 468.037914 135.080802 470.026937 
C 137.069825 472.01596 139.767899 473.133539 142.580802 473.133539 
z
" clip-path="url(#pdb17f4df69)" style="fill: #3b82f6; stroke: #333333; stroke-width: 0.8"/>
    <path d="M 142.961155 141.133981 
C 145.774059 141.133981 148.472132 140.016403 150.461155 138.027379 
C 152.450178 136.038356 153.567757 133.340283 153.567757 130.527379 
C 153.567757 127.714476 152.450178 125.016403 150.461155 123.027379 
C 148.472132 121.038356 145.774059 119.920778 142.961155 119.920778 
C 140.148251 119.920778 137.450178 121.038356 135.461155 123.027379 
C 133.472132 125.016403 132.354553 127.714476 132.354553 130.527379 
C 132.354553 133.340283 133.472132 136.038356 135.461155 138.027379 
C 137.450178 140.016403 140.148251 141.133981 142.961155 141.133981 
z
" clip-path="url(#pdb17f4df69)" style="fill: #3b82f6; stroke: #333333; stroke-width: 0.8"/>
    <path d="M 347.960881 345.385641 
C 350.773785 345.385641 353.471858 344.268062 355.460881 342.279039 
C 357.449904 340.290016 358.567483 337.591943 358.567483 334.779039 
C 358.567483 331.966136 357.449904 329.268062 355.460881 327.279039 
C 353.471858 325.290016 350.773785 324.172438 347.960881 324.172438 
C 345.147977 324.172438 342.449904 325.290016 340.460881 327.279039 
C 338.471858 329.268062 337.354279 331.966136 337.354279 334.779039 
C 337.354279 337.591943 338.471858 340.290016 340.460881 342.279039 
C 342.449904 344.268062 345.147977 345.385641 347.960881 345.385641 
z
" clip-path="url(#pdb17f4df69)" style="fill: #3b82f6; stroke: #333333; stroke-width: 0.8"/>
    <path d="M 395.801134 362.066888 
C 398.614037 362.066888 401.31211 360.949309 403.301134 358.960286 
C 405.290157 356.971263 406.407735 354.27319 406.407735 351.460286 
C 406.407735 348.647382 405.290157 345.949309 403.301134 343.960286 
C 401.31211 341.971263 398.614037 340.853684 395.801134 340.853684 
C 392.98823 340.853684 390.290157 341.971263 388.301134 343.960286 
C 386.31211 345.949309 385.194532 348.647382 385.194532 351.460286 
C 385.194532 354.27319 386.31211 356.971263 388.301134 358.960286 
C 390.290157 360.949309 392.98823 362.066888 395.801134 362.066888 
z
" clip-path="url(#pdb17f4df69)" style="fill: #3b82f6; stroke: #333333; stroke-width: 0.8"/>
    <path d="M 688.829752 366.977593 
C 691.642656 366.977593 694.340729 365.860015 696.329752 363.870992 
C 698.318775 361.881968 699.436354 359.183895 699.436354 356.370992 
C 699.436354 353.558088 698.318775 350.860015 696.329752 348.870992 
C 694.340729 346.881968 691.642656 345.76439 688.829752 345.76439 
C 686.016848 345.76439 683.318775 346.881968 681.329752 348.870992 
C 679.340729 350.860015 678.22315 353.558088 678.22315 356.370992 
C 678.22315 359.183895 679.340729 361.881968 681.329752 363.870992 
C 683.318775 365.860015 686.016848 366.977593 688.829752 366.977593 
z
" clip-path="url(#pdb17f4df69)" style="fill: #f97316; stroke: #333333; stroke-width: 0.8"/>
    <path d="M 288.521516 526.188694 
C 291.33442 526.188694 294.032493 525.071115 296.021516 523.082092 
C 298.010539 521.093069 299.128118 518.394996 299.128118 515.582092 
C 299.128118 512.769188 298.010539 510.071115 296.021516 508.082092 
C 294.032493 506.093069 291.33442 504.97549 288.521516 504.97549 
C 285.708612 504.97549 283.010539 506.093069 281.021516 508.082092 
C 279.032493 510.071115 277.914914 512.769188 277.914914 515.582092 
C 277.914914 518.394996 279.032493 521.093069 281.021516 523.082092 
C 283.010539 525.071115 285.708612 526.188694 288.521516 526.188694 
z
" clip-path="url(#pdb17f4df69)" style="fill: #f97316; stroke: #333333; stroke-width: 0.8"/>
    <path d="M 75.992802 248.333391 
C 78.805706 248.333391 81.503779 247.215812 83.492802 245.226789 
C 85.481826 243.237766 86.599404 240.539693 86.599404 237.726789 
C 86.599404 234.913886 85.481826 232.215812 83.492802 230.226789 
C 81.503779 228.237766 78.805706 227.120187 75.992802 227.120187 
C 73.179899 227.120187 70.481826 228.237766 68.492802 230.226789 
C 66.503779 232.215812 65.386201 234.913886 65.386201 237.726789 
C 65.386201 240.539693 66.503779 243.237766 68.492802 245.226789 
C 70.481826 247.215812 73.179899 248.333391 75.992802 248.333391 
z
" clip-path="url(#pdb17f4df69)" style="fill: #f97316; stroke: #333333; stroke-width: 0.8"/>
    <path d="M 451.100456 525.907327 
C 453.91336 525.907327 456.611433 524.789748 458.600456 522.800725 
C 460.589479 520.811702 461.707058 518.113629 461.707058 515.300725 
C 461.707058 512.487821 460.589479 509.789748 458.600456 507.800725 
C 456.611433 505.811702 453.91336 504.694123 451.100456 504.694123 
C 448.287552 504.694123 445.589479 505.811702 443.600456 507.800725 
C 441.611433 509.789748 440.493854 512.487821 440.493854 515.300725 
C 440.493854 518.113629 441.611433 520.811702 443.600456 522.800725 
C 445.589479 524.789748 448.287552 525.907327 451.100456 525.907327 
z
" clip-path="url(#pdb17f4df69)" style="fill: #f97316; stroke: #333333; stroke-width: 0.8"/>
    <path d="M 597.242423 473.926338 
C 600.055327 473.926338 602.7534 472.80876 604.742423 470.819737 
C 606.731446 468.830713 607.849025 466.13264 607.849025 463.319737 
C 607.849025 460.506833 606.731446 457.80876 604.742423 455.819737 
C 602.7534 453.830713 600.055327 452.713135 597.242423 452.713135 
C 594.42952 452.713135 591.731446 453.830713 589.742423 455.819737 
C 587.7534 457.80876 586.635822 460.506833 586.635822 463.319737 
C 586.635822 466.13264 587.7534 468.830713 589.742423 470.819737 
C 591.731446 472.80876 594.42952 473.926338 597.242423 473.926338 
z
" clip-path="url(#pdb17f4df69)" style="fill: #f97316; stroke: #333333; stroke-width: 0.8"/>
    <path d="M 71.970248 366.165699 
C 74.783152 366.165699 77.481225 365.048121 79.470248 363.059098 
C 81.459271 361.070074 82.57685 358.372001 82.57685 355.559098 
C 82.57685 352.746194 81.459271 350.048121 79.470248 348.059098 
C 77.481225 346.070074 74.783152 344.952496 71.970248 344.952496 
C 69.157344 344.952496 66.459271 346.070074 64.470248 348.059098 
C 62.481225 350.048121 61.363646 352.746194 61.363646 355.559098 
C 61.363646 358.372001 62.481225 361.070074 64.470248 363.059098 
C 66.459271 365.048121 69.157344 366.165699 71.970248 366.165699 
z
" clip-path="url(#pdb17f4df69)" style="fill: #f97316; stroke: #333333; stroke-width: 0.8"/>
    <path d="M 496.493037 87.94076 
C 499.305941 87.94076 502.004014 86.823181 503.993037 84.834158 
C 505.982061 82.845135 507.099639 80.147062 507.099639 77.334158 
C 507.099639 74.521254 505.982061 71.823181 503.993037 69.834158 
C 502.004014 67.845135 499.305941 66.727556 496.493037 66.727556 
C 493.680134 66.727556 490.982061 67.845135 488.993037 69.834158 
C 487.004014 71.823181 485.886436 74.521254 485.886436 77.334158 
C 485.886436 80.147062 487.004014 82.845135 488.993037 84.834158 
C 490.982061 86.823181 493.680134 87.94076 496.493037 87.94076 
z
" clip-path="url(#pdb17f4df69)" style="fill: #f97316; stroke: #333333; stroke-width: 0.8"/>
   </g>
   <g id="text_14">
    <g clip-path="url(#pdb17f4df69)">
     <!-- SYS-004: Endurance -->
     <g transform="translate(298.181523 256.190688) scale(0.06 -0.06)">
      <defs>
       <path id="DejaVuSans-Bold-53" d="M 3834 4519 
L 3834 3531 
Q 3450 3703 3084 3790 
Q 2719 3878 2394 3878 
Q 1963 3878 1756 3759 
Q 1550 3641 1550 3391 
Q 1550 3203 1689 3098 
Q 1828 2994 2194 2919 
L 2706 2816 
Q 3484 2659 3812 2340 
Q 4141 2022 4141 1434 
Q 4141 663 3683 286 
Q 3225 -91 2284 -91 
Q 1841 -91 1394 -6 
Q 947 78 500 244 
L 500 1259 
Q 947 1022 1364 901 
Q 1781 781 2169 781 
Q 2563 781 2772 912 
Q 2981 1044 2981 1288 
Q 2981 1506 2839 1625 
Q 2697 1744 2272 1838 
L 1806 1941 
Q 1106 2091 782 2419 
Q 459 2747 459 3303 
Q 459 4000 909 4375 
Q 1359 4750 2203 4750 
Q 2588 4750 2994 4692 
Q 3400 4634 3834 4519 
z
" transform="scale(0.015625)"/>
       <path id="DejaVuSans-Bold-59" d="M -63 4666 
L 1253 4666 
L 2316 3003 
L 3378 4666 
L 4697 4666 
L 2919 1966 
L 2919 0 
L 1716 0 
L 1716 1966 
L -63 4666 
z
" transform="scale(0.015625)"/>
       <path id="DejaVuSans-Bold-2d" d="M 347 2297 
L 2309 2297 
L 2309 1388 
L 347 1388 
L 347 2297 
z
" transform="scale(0.015625)"/>
       <path id="DejaVuSans-Bold-30" d="M 2944 2338 
Q 2944 3213 2780 3570 
Q 2616 3928 2228 3928 
Q 1841 3928 1675 3570 
Q 1509 3213 1509 2338 
Q 1509 1453 1675 1090 
Q 1841 728 2228 728 
Q 2613 728 2778 1090 
Q 2944 1453 2944 2338 
z
M 4147 2328 
Q 4147 1169 3647 539 
Q 3147 -91 2228 -91 
Q 1306 -91 806 539 
Q 306 1169 306 2328 
Q 306 3491 806 4120 
Q 1306 4750 2228 4750 
Q 3147 4750 3647 4120 
Q 4147 3491 4147 2328 
z
" transform="scale(0.015625)"/>
       <path id="DejaVuSans-Bold-34" d="M 2356 3675 
L 1038 1722 
L 2356 1722 
L 2356 3675 
z
M 2156 4666 
L 3494 4666 
L 3494 1722 
L 4159 1722 
L 4159 850 
L 3494 850 
L 3494 0 
L 2356 0 
L 2356 850 
L 288 850 
L 288 1881 
L 2156 4666 
z
" transform="scale(0.015625)"/>
       <path id="DejaVuSans-Bold-3a" d="M 716 3500 
L 1844 3500 
L 1844 2291 
L 716 2291 
L 716 3500 
z
M 716 1209 
L 1844 1209 
L 1844 0 
L 716 0 
L 716 1209 
z
" transform="scale(0.015625)"/>
       <path id="DejaVuSans-Bold-20" transform="scale(0.015625)"/>
       <path id="DejaVuSans-Bold-45" d="M 588 4666 
L 3834 4666 
L 3834 3756 
L 1791 3756 
L 1791 2888 
L 3713 2888 
L 3713 1978 
L 1791 1978 
L 1791 909 
L 3903 909 
L 3903 0 
L 588 0 
L 588 4666 
z
" transform="scale(0.015625)"/>
       <path id="DejaVuSans-Bold-6e" d="M 4056 2131 
L 4056 0 
L 2931 0 
L 2931 347 
L 2931 1631 
Q 2931 2084 2911 2256 
Q 2891 2428 2841 2509 
Q 2775 2619 2662 2680 
Q 2550 2741 2406 2741 
Q 2056 2741 1856 2470 
Q 1656 2200 1656 1722 
L 1656 0 
L 538 0 
L 538 3500 
L 1656 3500 
L 1656 2988 
Q 1909 3294 2193 3439 
Q 2478 3584 2822 3584 
Q 3428 3584 3742 3212 
Q 4056 2841 4056 2131 
z
" transform="scale(0.015625)"/>
       <path id="DejaVuSans-Bold-64" d="M 2919 2988 
L 2919 4863 
L 4044 4863 
L 4044 0 
L 2919 0 
L 2919 506 
Q 2688 197 2409 53 
Q 2131 -91 1766 -91 
Q 1119 -91 703 423 
Q 288 938 288 1747 
Q 288 2556 703 3070 
Q 1119 3584 1766 3584 
Q 2128 3584 2408 3439 
Q 2688 3294 2919 2988 
z
M 2181 722 
Q 2541 722 2730 984 
Q 2919 1247 2919 1747 
Q 2919 2247 2730 2509 
Q 2541 2772 2181 2772 
Q 1825 2772 1636 2509 
Q 1447 2247 1447 1747 
Q 1447 1247 1636 984 
Q 1825 722 2181 722 
z
" transform="scale(0.015625)"/>
       <path id="DejaVuSans-Bold-75" d="M 500 1363 
L 500 3500 
L 1625 3500 
L 1625 3150 
Q 1625 2866 1622 2436 
Q 1619 2006 1619 1863 
Q 1619 1441 1641 1255 
Q 1663 1069 1716 984 
Q 1784 875 1895 815 
Q 2006 756 2150 756 
Q 2500 756 2700 1025 
Q 2900 1294 2900 1772 
L 2900 3500 
L 4019 3500 
L 4019 0 
L 2900 0 
L 2900 506 
Q 2647 200 2364 54 
Q 2081 -91 1741 -91 
Q 1134 -91 817 281 
Q 500 653 500 1363 
z
" transform="scale(0.015625)"/>
       <path id="DejaVuSans-Bold-72" d="M 3138 2547 
Q 2991 2616 2845 2648 
Q 2700 2681 2553 2681 
Q 2122 2681 1889 2404 
Q 1656 2128 1656 1613 
L 1656 0 
L 538 0 
L 538 3500 
L 1656 3500 
L 1656 2925 
Q 1872 3269 2151 3426 
Q 2431 3584 2822 3584 
Q 2878 3584 2943 3579 
Q 3009 3575 3134 3559 
L 3138 2547 
z
" transform="scale(0.015625)"/>
       <path id="DejaVuSans-Bold-61" d="M 2106 1575 
Q 1756 1575 1579 1456 
Q 1403 1338 1403 1106 
Q 1403 894 1545 773 
Q 1688 653 1941 653 
Q 2256 653 2472 879 
Q 2688 1106 2688 1447 
L 2688 1575 
L 2106 1575 
z
M 3816 1997 
L 3816 0 
L 2688 0 
L 2688 519 
Q 2463 200 2181 54 
Q 1900 -91 1497 -91 
Q 953 -91 614 226 
Q 275 544 275 1050 
Q 275 1666 698 1953 
Q 1122 2241 2028 2241 
L 2688 2241 
L 2688 2328 
Q 2688 2594 2478 2717 
Q 2269 2841 1825 2841 
Q 1466 2841 1156 2769 
Q 847 2697 581 2553 
L 581 3406 
Q 941 3494 1303 3539 
Q 1666 3584 2028 3584 
Q 2975 3584 3395 3211 
Q 3816 2838 3816 1997 
z
" transform="scale(0.015625)"/>
       <path id="DejaVuSans-Bold-63" d="M 3366 3391 
L 3366 2478 
Q 3138 2634 2908 2709 
Q 2678 2784 2431 2784 
Q 1963 2784 1702 2511 
Q 1441 2238 1441 1747 
Q 1441 1256 1702 982 
Q 1963 709 2431 709 
Q 2694 709 2930 787 
Q 3166 866 3366 1019 
L 3366 103 
Q 3103 6 2833 -42 
Q 2563 -91 2291 -91 
Q 1344 -91 809 395 
Q 275 881 275 1747 
Q 275 2613 809 3098 
Q 1344 3584 2291 3584 
Q 2566 3584 2833 3536 
Q 3100 3488 3366 3391 
z
" transform="scale(0.015625)"/>
       <path id="DejaVuSans-Bold-65" d="M 4031 1759 
L 4031 1441 
L 1416 1441 
Q 1456 1047 1700 850 
Q 1944 653 2381 653 
Q 2734 653 3104 758 
Q 3475 863 3866 1075 
L 3866 213 
Q 3469 63 3072 -14 
Q 2675 -91 2278 -91 
Q 1328 -91 801 392 
Q 275 875 275 1747 
Q 275 2603 792 3093 
Q 1309 3584 2216 3584 
Q 3041 3584 3536 3087 
Q 4031 2591 4031 1759 
z
M 2881 2131 
Q 2881 2450 2695 2645 
Q 2509 2841 2209 2841 
Q 1884 2841 1681 2658 
Q 1478 2475 1428 2131 
L 2881 2131 
z
" transform="scale(0.015625)"/>
      </defs>
      <use xlink:href="#DejaVuSans-Bold-53"/>
      <use xlink:href="#DejaVuSans-Bold-59" x="72.021484"/>
      <use xlink:href="#DejaVuSans-Bold-53" x="144.433594"/>
      <use xlink:href="#DejaVuSans-Bold-2d" x="216.455078"/>
      <use xlink:href="#DejaVuSans-Bold-30" x="257.958984"/>
      <use xlink:href="#DejaVuSans-Bold-30" x="327.539062"/>
      <use xlink:href="#DejaVuSans-Bold-34" x="397.119141"/>
      <use xlink:href="#DejaVuSans-Bold-3a" x="466.699219"/>
      <use xlink:href="#DejaVuSans-Bold-20" x="506.689453"/>
      <use xlink:href="#DejaVuSans-Bold-45" x="541.503906"/>
      <use xlink:href="#DejaVuSans-Bold-6e" x="609.814453"/>
      <use xlink:href="#DejaVuSans-Bold-64" x="681.005859"/>
      <use xlink:href="#DejaVuSans-Bold-75" x="752.587891"/>
      <use xlink:href="#DejaVuSans-Bold-72" x="823.779297"/>
      <use xlink:href="#DejaVuSans-Bold-61" x="873.095703"/>
      <use xlink:href="#DejaVuSans-Bold-6e" x="940.576172"/>
      <use xlink:href="#DejaVuSans-Bold-63" x="1011.767578"/>
      <use xlink:href="#DejaVuSans-Bold-65" x="1071.044922"/>
     </g>
    </g>
   </g>
   <g id="text_15">
    <g clip-path="url(#pdb17f4df69)">
     <!-- PERF-005: Avionics -->
     <g transform="translate(640.866209 217.469187) scale(0.06 -0.06)">
      <defs>
       <path id="DejaVuSans-Bold-50" d="M 588 4666 
L 2584 4666 
Q 3475 4666 3951 4270 
Q 4428 3875 4428 3144 
Q 4428 2409 3951 2014 
Q 3475 1619 2584 1619 
L 1791 1619 
L 1791 0 
L 588 0 
L 588 4666 
z
M 1791 3794 
L 1791 2491 
L 2456 2491 
Q 2806 2491 2997 2661 
Q 3188 2831 3188 3144 
Q 3188 3456 2997 3625 
Q 2806 3794 2456 3794 
L 1791 3794 
z
" transform="scale(0.015625)"/>
       <path id="DejaVuSans-Bold-52" d="M 2297 2597 
Q 2675 2597 2839 2737 
Q 3003 2878 3003 3200 
Q 3003 3519 2839 3656 
Q 2675 3794 2297 3794 
L 1791 3794 
L 1791 2597 
L 2297 2597 
z
M 1791 1766 
L 1791 0 
L 588 0 
L 588 4666 
L 2425 4666 
Q 3347 4666 3776 4356 
Q 4206 4047 4206 3378 
Q 4206 2916 3982 2619 
Q 3759 2322 3309 2181 
Q 3556 2125 3751 1926 
Q 3947 1728 4147 1325 
L 4800 0 
L 3519 0 
L 2950 1159 
Q 2778 1509 2601 1637 
Q 2425 1766 2131 1766 
L 1791 1766 
z
" transform="scale(0.015625)"/>
       <path id="DejaVuSans-Bold-46" d="M 588 4666 
L 3834 4666 
L 3834 3756 
L 1791 3756 
L 1791 2888 
L 3713 2888 
L 3713 1978 
L 1791 1978 
L 1791 0 
L 588 0 
L 588 4666 
z
" transform="scale(0.015625)"/>
       <path id="DejaVuSans-Bold-35" d="M 678 4666 
L 3669 4666 
L 3669 3781 
L 1638 3781 
L 1638 3059 
Q 1775 3097 1914 3117 
Q 2053 3138 2203 3138 
Q 3056 3138 3531 2711 
Q 4006 2284 4006 1522 
Q 4006 766 3489 337 
Q 2972 -91 2053 -91 
Q 1656 -91 1267 -14 
Q 878 63 494 219 
L 494 1166 
Q 875 947 1217 837 
Q 1559 728 1863 728 
Q 2300 728 2551 942 
Q 2803 1156 2803 1522 
Q 2803 1891 2551 2103 
Q 2300 2316 1863 2316 
Q 1603 2316 1309 2248 
Q 1016 2181 678 2041 
L 678 4666 
z
" transform="scale(0.015625)"/>
       <path id="DejaVuSans-Bold-41" d="M 3419 850 
L 1538 850 
L 1241 0 
L 31 0 
L 1759 4666 
L 3194 4666 
L 4922 0 
L 3713 0 
L 3419 850 
z
M 1838 1716 
L 3116 1716 
L 2478 3572 
L 1838 1716 
z
" transform="scale(0.015625)"/>
       <path id="DejaVuSans-Bold-76" d="M 97 3500 
L 1216 3500 
L 2088 1081 
L 2956 3500 
L 4078 3500 
L 2700 0 
L 1472 0 
L 97 3500 
z
" transform="scale(0.015625)"/>
       <path id="DejaVuSans-Bold-69" d="M 538 3500 
L 1656 3500 
L 1656 0 
L 538 0 
L 538 3500 
z
M 538 4863 
L 1656 4863 
L 1656 3950 
L 538 3950 
L 538 4863 
z
" transform="scale(0.015625)"/>
       <path id="DejaVuSans-Bold-6f" d="M 2203 2784 
Q 1831 2784 1636 2517 
Q 1441 2250 1441 1747 
Q 1441 1244 1636 976 
Q 1831 709 2203 709 
Q 2569 709 2762 976 
Q 2956 1244 2956 1747 
Q 2956 2250 2762 2517 
Q 2569 2784 2203 2784 
z
M 2203 3584 
Q 3106 3584 3614 3096 
Q 4122 2609 4122 1747 
Q 4122 884 3614 396 
Q 3106 -91 2203 -91 
Q 1297 -91 786 396 
Q 275 884 275 1747 
Q 275 2609 786 3096 
Q 1297 3584 2203 3584 
z
" transform="scale(0.015625)"/>
       <path id="DejaVuSans-Bold-73" d="M 3272 3391 
L 3272 2541 
Q 2913 2691 2578 2766 
Q 2244 2841 1947 2841 
Q 1628 2841 1473 2761 
Q 1319 2681 1319 2516 
Q 1319 2381 1436 2309 
Q 1553 2238 1856 2203 
L 2053 2175 
Q 2913 2066 3209 1816 
Q 3506 1566 3506 1031 
Q 3506 472 3093 190 
Q 2681 -91 1863 -91 
Q 1516 -91 1145 -36 
Q 775 19 384 128 
L 384 978 
Q 719 816 1070 734 
Q 1422 653 1784 653 
Q 2113 653 2278 743 
Q 2444 834 2444 1013 
Q 2444 1163 2330 1236 
Q 2216 1309 1875 1350 
L 1678 1375 
Q 931 1469 631 1722 
Q 331 1975 331 2491 
Q 331 3047 712 3315 
Q 1094 3584 1881 3584 
Q 2191 3584 2531 3537 
Q 2872 3491 3272 3391 
z
" transform="scale(0.015625)"/>
      </defs>
      <use xlink:href="#DejaVuSans-Bold-50"/>
      <use xlink:href="#DejaVuSans-Bold-45" x="73.291016"/>
      <use xlink:href="#DejaVuSans-Bold-52" x="141.601562"/>
      <use xlink:href="#DejaVuSans-Bold-46" x="218.603516"/>
      <use xlink:href="#DejaVuSans-Bold-2d" x="283.789062"/>
      <use xlink:href="#DejaVuSans-Bold-30" x="325.292969"/>
      <use xlink:href="#DejaVuSans-Bold-30" x="394.873047"/>
      <use xlink:href="#DejaVuSans-Bold-35" x="464.453125"/>
      <use xlink:href="#DejaVuSans-Bold-3a" x="534.033203"/>
      <use xlink:href="#DejaVuSans-Bold-20" x="574.023438"/>
      <use xlink:href="#DejaVuSans-Bold-41" x="608.837891"/>
      <use xlink:href="#DejaVuSans-Bold-76" x="682.605469"/>
      <use xlink:href="#DejaVuSans-Bold-69" x="747.791016"/>
      <use xlink:href="#DejaVuSans-Bold-6f" x="782.068359"/>
      <use xlink:href="#DejaVuSans-Bold-6e" x="850.769531"/>
      <use xlink:href="#DejaVuSans-Bold-69" x="921.960938"/>
      <use xlink:href="#DejaVuSans-Bold-63" x="956.238281"/>
      <use xlink:href="#DejaVuSans-Bold-73" x="1015.515625"/>
     </g>
    </g>
    <g clip-path="url(#pdb17f4df69)">
     <!-- Power Budget -->
     <g transform="translate(649.341209 224.187874) scale(0.06 -0.06)">
      <defs>
       <path id="DejaVuSans-Bold-77" d="M 225 3500 
L 1313 3500 
L 1900 1088 
L 2491 3500 
L 3425 3500 
L 4013 1113 
L 4603 3500 
L 5691 3500 
L 4769 0 
L 3547 0 
L 2956 2406 
L 2369 0 
L 1147 0 
L 225 3500 
z
" transform="scale(0.015625)"/>
       <path id="DejaVuSans-Bold-42" d="M 2456 2859 
Q 2741 2859 2887 2984 
Q 3034 3109 3034 3353 
Q 3034 3594 2887 3720 
Q 2741 3847 2456 3847 
L 1791 3847 
L 1791 2859 
L 2456 2859 
z
M 2497 819 
Q 2859 819 3042 972 
Q 3225 1125 3225 1434 
Q 3225 1738 3044 1889 
Q 2863 2041 2497 2041 
L 1791 2041 
L 1791 819 
L 2497 819 
z
M 3616 2497 
Q 4003 2384 4215 2081 
Q 4428 1778 4428 1338 
Q 4428 663 3972 331 
Q 3516 0 2584 0 
L 588 0 
L 588 4666 
L 2394 4666 
Q 3366 4666 3802 4372 
Q 4238 4078 4238 3431 
Q 4238 3091 4078 2852 
Q 3919 2613 3616 2497 
z
" transform="scale(0.015625)"/>
       <path id="DejaVuSans-Bold-67" d="M 2919 594 
Q 2688 288 2409 144 
Q 2131 0 1766 0 
Q 1125 0 706 504 
Q 288 1009 288 1791 
Q 288 2575 706 3076 
Q 1125 3578 1766 3578 
Q 2131 3578 2409 3434 
Q 2688 3291 2919 2981 
L 2919 3500 
L 4044 3500 
L 4044 353 
Q 4044 -491 3511 -936 
Q 2978 -1381 1966 -1381 
Q 1638 -1381 1331 -1331 
Q 1025 -1281 716 -1178 
L 716 -306 
Q 1009 -475 1290 -558 
Q 1572 -641 1856 -641 
Q 2406 -641 2662 -400 
Q 2919 -159 2919 353 
L 2919 594 
z
M 2181 2772 
Q 1834 2772 1640 2515 
Q 1447 2259 1447 1791 
Q 1447 1309 1634 1061 
Q 1822 813 2181 813 
Q 2531 813 2725 1069 
Q 2919 1325 2919 1791 
Q 2919 2259 2725 2515 
Q 2531 2772 2181 2772 
z
" transform="scale(0.015625)"/>
       <path id="DejaVuSans-Bold-74" d="M 1759 4494 
L 1759 3500 
L 2913 3500 
L 2913 2700 
L 1759 2700 
L 1759 1216 
Q 1759 972 1856 886 
Q 1953 800 2241 800 
L 2816 800 
L 2816 0 
L 1856 0 
Q 1194 0 917 276 
Q 641 553 641 1216 
L 641 2700 
L 84 2700 
L 84 3500 
L 641 3500 
L 641 4494 
L 1759 4494 
z
" transform="scale(0.015625)"/>
      </defs>
      <use xlink:href="#DejaVuSans-Bold-50"/>
      <use xlink:href="#DejaVuSans-Bold-6f" x="73.291016"/>
      <use xlink:href="#DejaVuSans-Bold-77" x="141.992188"/>
      <use xlink:href="#DejaVuSans-Bold-65" x="234.375"/>
      <use xlink:href="#DejaVuSans-Bold-72" x="302.197266"/>
      <use xlink:href="#DejaVuSans-Bold-20" x="351.513672"/>
      <use xlink:href="#DejaVuSans-Bold-42" x="386.328125"/>
      <use xlink:href="#DejaVuSans-Bold-75" x="462.548828"/>
      <use xlink:href="#DejaVuSans-Bold-64" x="533.740234"/>
      <use xlink:href="#DejaVuSans-Bold-67" x="605.322266"/>
      <use xlink:href="#DejaVuSans-Bold-65" x="676.904297"/>
      <use xlink:href="#DejaVuSans-Bold-74" x="744.726562"/>
     </g>
    </g>
   </g>
   <g id="text_16">
    <g clip-path="url(#pdb17f4df69)">
     <!-- PERF-003: Battery -->
     <g transform="translate(111.667208 460.752906) scale(0.06 -0.06)">
      <defs>
       <path id="DejaVuSans-Bold-33" d="M 2981 2516 
Q 3453 2394 3698 2092 
Q 3944 1791 3944 1325 
Q 3944 631 3412 270 
Q 2881 -91 1863 -91 
Q 1503 -91 1142 -33 
Q 781 25 428 141 
L 428 1069 
Q 766 900 1098 814 
Q 1431 728 1753 728 
Q 2231 728 2486 893 
Q 2741 1059 2741 1369 
Q 2741 1688 2480 1852 
Q 2219 2016 1709 2016 
L 1228 2016 
L 1228 2791 
L 1734 2791 
Q 2188 2791 2409 2933 
Q 2631 3075 2631 3366 
Q 2631 3634 2415 3781 
Q 2200 3928 1806 3928 
Q 1516 3928 1219 3862 
Q 922 3797 628 3669 
L 628 4550 
Q 984 4650 1334 4700 
Q 1684 4750 2022 4750 
Q 2931 4750 3382 4451 
Q 3834 4153 3834 3553 
Q 3834 3144 3618 2883 
Q 3403 2622 2981 2516 
z
" transform="scale(0.015625)"/>
       <path id="DejaVuSans-Bold-79" d="M 78 3500 
L 1197 3500 
L 2138 1125 
L 2938 3500 
L 4056 3500 
L 2584 -331 
Q 2363 -916 2067 -1148 
Q 1772 -1381 1288 -1381 
L 641 -1381 
L 641 -647 
L 991 -647 
Q 1275 -647 1404 -556 
Q 1534 -466 1606 -231 
L 1638 -134 
L 78 3500 
z
" transform="scale(0.015625)"/>
      </defs>
      <use xlink:href="#DejaVuSans-Bold-50"/>
      <use xlink:href="#DejaVuSans-Bold-45" x="73.291016"/>
      <use xlink:href="#DejaVuSans-Bold-52" x="141.601562"/>
      <use xlink:href="#DejaVuSans-Bold-46" x="218.603516"/>
      <use xlink:href="#DejaVuSans-Bold-2d" x="283.789062"/>
      <use xlink:href="#DejaVuSans-Bold-30" x="325.292969"/>
      <use xlink:href="#DejaVuSans-Bold-30" x="394.873047"/>
      <use xlink:href="#DejaVuSans-Bold-33" x="464.453125"/>
      <use xlink:href="#DejaVuSans-Bold-3a" x="534.033203"/>
      <use xlink:href="#DejaVuSans-Bold-20" x="574.023438"/>
      <use xlink:href="#DejaVuSans-Bold-42" x="608.837891"/>
      <use xlink:href="#DejaVuSans-Bold-61" x="685.058594"/>
      <use xlink:href="#DejaVuSans-Bold-74" x="752.539062"/>
      <use xlink:href="#DejaVuSans-Bold-74" x="800.341797"/>
      <use xlink:href="#DejaVuSans-Bold-65" x="848.144531"/>
      <use xlink:href="#DejaVuSans-Bold-72" x="915.966797"/>
      <use xlink:href="#DejaVuSans-Bold-79" x="965.283203"/>
     </g>
    </g>
    <g clip-path="url(#pdb17f4df69)">
     <!-- Energy Density -->
     <g transform="translate(116.869865 467.518468) scale(0.06 -0.06)">
      <defs>
       <path id="DejaVuSans-Bold-44" d="M 1791 3756 
L 1791 909 
L 2222 909 
Q 2959 909 3348 1275 
Q 3738 1641 3738 2338 
Q 3738 3031 3350 3393 
Q 2963 3756 2222 3756 
L 1791 3756 
z
M 588 4666 
L 1856 4666 
Q 2919 4666 3439 4514 
Q 3959 4363 4331 4000 
Q 4659 3684 4818 3271 
Q 4978 2859 4978 2338 
Q 4978 1809 4818 1395 
Q 4659 981 4331 666 
Q 3956 303 3431 151 
Q 2906 0 1856 0 
L 588 0 
L 588 4666 
z
" transform="scale(0.015625)"/>
      </defs>
      <use xlink:href="#DejaVuSans-Bold-45"/>
      <use xlink:href="#DejaVuSans-Bold-6e" x="68.310547"/>
      <use xlink:href="#DejaVuSans-Bold-65" x="139.501953"/>
      <use xlink:href="#DejaVuSans-Bold-72" x="207.324219"/>
      <use xlink:href="#DejaVuSans-Bold-67" x="256.640625"/>
      <use xlink:href="#DejaVuSans-Bold-79" x="328.222656"/>
      <use xlink:href="#DejaVuSans-Bold-20" x="393.408203"/>
      <use xlink:href="#DejaVuSans-Bold-44" x="428.222656"/>
      <use xlink:href="#DejaVuSans-Bold-65" x="511.230469"/>
      <use xlink:href="#DejaVuSans-Bold-6e" x="579.052734"/>
      <use xlink:href="#DejaVuSans-Bold-73" x="650.244141"/>
      <use xlink:href="#DejaVuSans-Bold-69" x="709.765625"/>
      <use xlink:href="#DejaVuSans-Bold-74" x="744.042969"/>
      <use xlink:href="#DejaVuSans-Bold-79" x="791.845703"/>
     </g>
    </g>
   </g>
   <g id="text_17">
    <g clip-path="url(#pdb17f4df69)">
     <!-- PERF-002: -->
     <g transform="translate(125.740686 128.800223) scale(0.06 -0.06)">
      <defs>
       <path id="DejaVuSans-Bold-32" d="M 1844 884 
L 3897 884 
L 3897 0 
L 506 0 
L 506 884 
L 2209 2388 
Q 2438 2594 2547 2791 
Q 2656 2988 2656 3200 
Q 2656 3528 2436 3728 
Q 2216 3928 1850 3928 
Q 1569 3928 1234 3808 
Q 900 3688 519 3450 
L 519 4475 
Q 925 4609 1322 4679 
Q 1719 4750 2100 4750 
Q 2938 4750 3402 4381 
Q 3866 4013 3866 3353 
Q 3866 2972 3669 2642 
Q 3472 2313 2841 1759 
L 1844 884 
z
" transform="scale(0.015625)"/>
      </defs>
      <use xlink:href="#DejaVuSans-Bold-50"/>
      <use xlink:href="#DejaVuSans-Bold-45" x="73.291016"/>
      <use xlink:href="#DejaVuSans-Bold-52" x="141.601562"/>
      <use xlink:href="#DejaVuSans-Bold-46" x="218.603516"/>
      <use xlink:href="#DejaVuSans-Bold-2d" x="283.789062"/>
      <use xlink:href="#DejaVuSans-Bold-30" x="325.292969"/>
      <use xlink:href="#DejaVuSans-Bold-30" x="394.873047"/>
      <use xlink:href="#DejaVuSans-Bold-32" x="464.453125"/>
      <use xlink:href="#DejaVuSans-Bold-3a" x="534.033203"/>
     </g>
    </g>
    <g clip-path="url(#pdb17f4df69)">
     <!-- Propulsion Efficiency -->
     <g transform="translate(107.456155 135.518911) scale(0.06 -0.06)">
      <defs>
       <path id="DejaVuSans-Bold-70" d="M 1656 506 
L 1656 -1331 
L 538 -1331 
L 538 3500 
L 1656 3500 
L 1656 2988 
Q 1888 3294 2169 3439 
Q 2450 3584 2816 3584 
Q 3463 3584 3878 3070 
Q 4294 2556 4294 1747 
Q 4294 938 3878 423 
Q 3463 -91 2816 -91 
Q 2450 -91 2169 54 
Q 1888 200 1656 506 
z
M 2400 2772 
Q 2041 2772 1848 2508 
Q 1656 2244 1656 1747 
Q 1656 1250 1848 986 
Q 2041 722 2400 722 
Q 2759 722 2948 984 
Q 3138 1247 3138 1747 
Q 3138 2247 2948 2509 
Q 2759 2772 2400 2772 
z
" transform="scale(0.015625)"/>
       <path id="DejaVuSans-Bold-6c" d="M 538 4863 
L 1656 4863 
L 1656 0 
L 538 0 
L 538 4863 
z
" transform="scale(0.015625)"/>
       <path id="DejaVuSans-Bold-66" d="M 2841 4863 
L 2841 4128 
L 2222 4128 
Q 1984 4128 1890 4042 
Q 1797 3956 1797 3744 
L 1797 3500 
L 2753 3500 
L 2753 2700 
L 1797 2700 
L 1797 0 
L 678 0 
L 678 2700 
L 122 2700 
L 122 3500 
L 678 3500 
L 678 3744 
Q 678 4316 997 4589 
Q 1316 4863 1984 4863 
L 2841 4863 
z
" transform="scale(0.015625)"/>
      </defs>
      <use xlink:href="#DejaVuSans-Bold-50"/>
      <use xlink:href="#DejaVuSans-Bold-72" x="73.291016"/>
      <use xlink:href="#DejaVuSans-Bold-6f" x="122.607422"/>
      <use xlink:href="#DejaVuSans-Bold-70" x="191.308594"/>
      <use xlink:href="#DejaVuSans-Bold-75" x="262.890625"/>
      <use xlink:href="#DejaVuSans-Bold-6c" x="334.082031"/>
      <use xlink:href="#DejaVuSans-Bold-73" x="368.359375"/>
      <use xlink:href="#DejaVuSans-Bold-69" x="427.880859"/>
      <use xlink:href="#DejaVuSans-Bold-6f" x="462.158203"/>
      <use xlink:href="#DejaVuSans-Bold-6e" x="530.859375"/>
      <use xlink:href="#DejaVuSans-Bold-20" x="602.050781"/>
      <use xlink:href="#DejaVuSans-Bold-45" x="636.865234"/>
      <use xlink:href="#DejaVuSans-Bold-66" x="705.175781"/>
      <use xlink:href="#DejaVuSans-Bold-66" x="748.681641"/>
      <use xlink:href="#DejaVuSans-Bold-69" x="792.1875"/>
      <use xlink:href="#DejaVuSans-Bold-63" x="826.464844"/>
      <use xlink:href="#DejaVuSans-Bold-69" x="885.742188"/>
      <use xlink:href="#DejaVuSans-Bold-65" x="920.019531"/>
      <use xlink:href="#DejaVuSans-Bold-6e" x="987.841797"/>
      <use xlink:href="#DejaVuSans-Bold-63" x="1059.033203"/>
      <use xlink:href="#DejaVuSans-Bold-79" x="1118.310547"/>
     </g>
    </g>
   </g>
   <g id="text_18">
    <g clip-path="url(#pdb17f4df69)">
     <!-- Power System -->
     <g transform="translate(323.874162 336.387789) scale(0.06 -0.06)">
      <defs>
       <path id="DejaVuSans-Bold-6d" d="M 3781 2919 
Q 3994 3244 4286 3414 
Q 4578 3584 4928 3584 
Q 5531 3584 5847 3212 
Q 6163 2841 6163 2131 
L 6163 0 
L 5038 0 
L 5038 1825 
Q 5041 1866 5042 1909 
Q 5044 1953 5044 2034 
Q 5044 2406 4934 2573 
Q 4825 2741 4581 2741 
Q 4263 2741 4089 2478 
Q 3916 2216 3909 1719 
L 3909 0 
L 2784 0 
L 2784 1825 
Q 2784 2406 2684 2573 
Q 2584 2741 2328 2741 
Q 2006 2741 1831 2477 
Q 1656 2213 1656 1722 
L 1656 0 
L 531 0 
L 531 3500 
L 1656 3500 
L 1656 2988 
Q 1863 3284 2130 3434 
Q 2397 3584 2719 3584 
Q 3081 3584 3359 3409 
Q 3638 3234 3781 2919 
z
" transform="scale(0.015625)"/>
      </defs>
      <use xlink:href="#DejaVuSans-Bold-50"/>
      <use xlink:href="#DejaVuSans-Bold-6f" x="73.291016"/>
      <use xlink:href="#DejaVuSans-Bold-77" x="141.992188"/>
      <use xlink:href="#DejaVuSans-Bold-65" x="234.375"/>
      <use xlink:href="#DejaVuSans-Bold-72" x="302.197266"/>
      <use xlink:href="#DejaVuSans-Bold-20" x="351.513672"/>
      <use xlink:href="#DejaVuSans-Bold-53" x="386.328125"/>
      <use xlink:href="#DejaVuSans-Bold-79" x="458.349609"/>
      <use xlink:href="#DejaVuSans-Bold-73" x="523.535156"/>
      <use xlink:href="#DejaVuSans-Bold-74" x="583.056641"/>
      <use xlink:href="#DejaVuSans-Bold-65" x="630.859375"/>
      <use xlink:href="#DejaVuSans-Bold-6d" x="698.681641"/>
     </g>
    </g>
   </g>
   <g id="text_19">
    <g clip-path="url(#pdb17f4df69)">
     <!-- Propulsion -->
     <g transform="translate(377.739727 353.115911) scale(0.06 -0.06)">
      <use xlink:href="#DejaVuSans-Bold-50"/>
      <use xlink:href="#DejaVuSans-Bold-72" x="73.291016"/>
      <use xlink:href="#DejaVuSans-Bold-6f" x="122.607422"/>
      <use xlink:href="#DejaVuSans-Bold-70" x="191.308594"/>
      <use xlink:href="#DejaVuSans-Bold-75" x="262.890625"/>
      <use xlink:href="#DejaVuSans-Bold-6c" x="334.082031"/>
      <use xlink:href="#DejaVuSans-Bold-73" x="368.359375"/>
      <use xlink:href="#DejaVuSans-Bold-69" x="427.880859"/>
      <use xlink:href="#DejaVuSans-Bold-6f" x="462.158203"/>
      <use xlink:href="#DejaVuSans-Bold-6e" x="530.859375"/>
     </g>
    </g>
   </g>
   <g id="text_20">
    <g clip-path="url(#pdb17f4df69)">
     <!-- SYS-002: -->
     <g transform="translate(673.630065 354.643835) scale(0.06 -0.06)">
      <use xlink:href="#DejaVuSans-Bold-53"/>
      <use xlink:href="#DejaVuSans-Bold-59" x="72.021484"/>
      <use xlink:href="#DejaVuSans-Bold-53" x="144.433594"/>
      <use xlink:href="#DejaVuSans-Bold-2d" x="216.455078"/>
      <use xlink:href="#DejaVuSans-Bold-30" x="257.958984"/>
      <use xlink:href="#DejaVuSans-Bold-30" x="327.539062"/>
      <use xlink:href="#DejaVuSans-Bold-32" x="397.119141"/>
      <use xlink:href="#DejaVuSans-Bold-3a" x="466.699219"/>
     </g>
    </g>
    <g clip-path="url(#pdb17f4df69)">
     <!-- Operational Range -->
     <g transform="translate(657.18444 361.362523) scale(0.06 -0.06)">
      <defs>
       <path id="DejaVuSans-Bold-4f" d="M 2719 3878 
Q 2169 3878 1866 3472 
Q 1563 3066 1563 2328 
Q 1563 1594 1866 1187 
Q 2169 781 2719 781 
Q 3272 781 3575 1187 
Q 3878 1594 3878 2328 
Q 3878 3066 3575 3472 
Q 3272 3878 2719 3878 
z
M 2719 4750 
Q 3844 4750 4481 4106 
Q 5119 3463 5119 2328 
Q 5119 1197 4481 553 
Q 3844 -91 2719 -91 
Q 1597 -91 958 553 
Q 319 1197 319 2328 
Q 319 3463 958 4106 
Q 1597 4750 2719 4750 
z
" transform="scale(0.015625)"/>
      </defs>
      <use xlink:href="#DejaVuSans-Bold-4f"/>
      <use xlink:href="#DejaVuSans-Bold-70" x="85.009766"/>
      <use xlink:href="#DejaVuSans-Bold-65" x="156.591797"/>
      <use xlink:href="#DejaVuSans-Bold-72" x="224.414062"/>
      <use xlink:href="#DejaVuSans-Bold-61" x="273.730469"/>
      <use xlink:href="#DejaVuSans-Bold-74" x="341.210938"/>
      <use xlink:href="#DejaVuSans-Bold-69" x="389.013672"/>
      <use xlink:href="#DejaVuSans-Bold-6f" x="423.291016"/>
      <use xlink:href="#DejaVuSans-Bold-6e" x="491.992188"/>
      <use xlink:href="#DejaVuSans-Bold-61" x="563.183594"/>
      <use xlink:href="#DejaVuSans-Bold-6c" x="630.664062"/>
      <use xlink:href="#DejaVuSans-Bold-20" x="664.941406"/>
      <use xlink:href="#DejaVuSans-Bold-52" x="699.755859"/>
      <use xlink:href="#DejaVuSans-Bold-61" x="776.757812"/>
      <use xlink:href="#DejaVuSans-Bold-6e" x="844.238281"/>
      <use xlink:href="#DejaVuSans-Bold-67" x="915.429688"/>
      <use xlink:href="#DejaVuSans-Bold-65" x="987.011719"/>
     </g>
    </g>
   </g>
   <g id="text_21">
    <g clip-path="url(#pdb17f4df69)">
     <!-- Main Battery Pack -->
     <g transform="translate(257.691828 513.854936) scale(0.06 -0.06)">
      <defs>
       <path id="DejaVuSans-Bold-4d" d="M 588 4666 
L 2119 4666 
L 3181 2169 
L 4250 4666 
L 5778 4666 
L 5778 0 
L 4641 0 
L 4641 3413 
L 3566 897 
L 2803 897 
L 1728 3413 
L 1728 0 
L 588 0 
L 588 4666 
z
" transform="scale(0.015625)"/>
       <path id="DejaVuSans-Bold-6b" d="M 538 4863 
L 1656 4863 
L 1656 2216 
L 2944 3500 
L 4244 3500 
L 2534 1894 
L 4378 0 
L 3022 0 
L 1656 1459 
L 1656 0 
L 538 0 
L 538 4863 
z
" transform="scale(0.015625)"/>
      </defs>
      <use xlink:href="#DejaVuSans-Bold-4d"/>
      <use xlink:href="#DejaVuSans-Bold-61" x="99.511719"/>
      <use xlink:href="#DejaVuSans-Bold-69" x="166.992188"/>
      <use xlink:href="#DejaVuSans-Bold-6e" x="201.269531"/>
      <use xlink:href="#DejaVuSans-Bold-20" x="272.460938"/>
      <use xlink:href="#DejaVuSans-Bold-42" x="307.275391"/>
      <use xlink:href="#DejaVuSans-Bold-61" x="383.496094"/>
      <use xlink:href="#DejaVuSans-Bold-74" x="450.976562"/>
      <use xlink:href="#DejaVuSans-Bold-74" x="498.779297"/>
      <use xlink:href="#DejaVuSans-Bold-65" x="546.582031"/>
      <use xlink:href="#DejaVuSans-Bold-72" x="614.404297"/>
      <use xlink:href="#DejaVuSans-Bold-79" x="663.720703"/>
      <use xlink:href="#DejaVuSans-Bold-20" x="728.90625"/>
      <use xlink:href="#DejaVuSans-Bold-50" x="763.720703"/>
      <use xlink:href="#DejaVuSans-Bold-61" x="834.386719"/>
      <use xlink:href="#DejaVuSans-Bold-63" x="901.867188"/>
      <use xlink:href="#DejaVuSans-Bold-6b" x="961.144531"/>
     </g>
    </g>
    <g clip-path="url(#pdb17f4df69)">
     <!-- 48V/29Ah -->
     <g transform="translate(272.297141 520.620498) scale(0.06 -0.06)">
      <defs>
       <path id="DejaVuSans-Bold-38" d="M 2228 2088 
Q 1891 2088 1709 1903 
Q 1528 1719 1528 1375 
Q 1528 1031 1709 848 
Q 1891 666 2228 666 
Q 2563 666 2741 848 
Q 2919 1031 2919 1375 
Q 2919 1722 2741 1905 
Q 2563 2088 2228 2088 
z
M 1350 2484 
Q 925 2613 709 2878 
Q 494 3144 494 3541 
Q 494 4131 934 4440 
Q 1375 4750 2228 4750 
Q 3075 4750 3515 4442 
Q 3956 4134 3956 3541 
Q 3956 3144 3739 2878 
Q 3522 2613 3097 2484 
Q 3572 2353 3814 2058 
Q 4056 1763 4056 1313 
Q 4056 619 3595 264 
Q 3134 -91 2228 -91 
Q 1319 -91 855 264 
Q 391 619 391 1313 
Q 391 1763 633 2058 
Q 875 2353 1350 2484 
z
M 1631 3419 
Q 1631 3141 1786 2991 
Q 1941 2841 2228 2841 
Q 2509 2841 2662 2991 
Q 2816 3141 2816 3419 
Q 2816 3697 2662 3845 
Q 2509 3994 2228 3994 
Q 1941 3994 1786 3844 
Q 1631 3694 1631 3419 
z
" transform="scale(0.015625)"/>
       <path id="DejaVuSans-Bold-56" d="M 31 4666 
L 1241 4666 
L 2478 1222 
L 3713 4666 
L 4922 4666 
L 3194 0 
L 1759 0 
L 31 4666 
z
" transform="scale(0.015625)"/>
       <path id="DejaVuSans-Bold-2f" d="M 1644 4666 
L 2338 4666 
L 691 -594 
L 0 -594 
L 1644 4666 
z
" transform="scale(0.015625)"/>
       <path id="DejaVuSans-Bold-39" d="M 641 103 
L 641 966 
Q 928 831 1190 764 
Q 1453 697 1709 697 
Q 2247 697 2547 995 
Q 2847 1294 2900 1881 
Q 2688 1725 2447 1647 
Q 2206 1569 1925 1569 
Q 1209 1569 770 1986 
Q 331 2403 331 3084 
Q 331 3838 820 4291 
Q 1309 4744 2131 4744 
Q 3044 4744 3544 4128 
Q 4044 3513 4044 2388 
Q 4044 1231 3459 570 
Q 2875 -91 1856 -91 
Q 1528 -91 1228 -42 
Q 928 6 641 103 
z
M 2125 2350 
Q 2441 2350 2600 2554 
Q 2759 2759 2759 3169 
Q 2759 3575 2600 3781 
Q 2441 3988 2125 3988 
Q 1809 3988 1650 3781 
Q 1491 3575 1491 3169 
Q 1491 2759 1650 2554 
Q 1809 2350 2125 2350 
z
" transform="scale(0.015625)"/>
       <path id="DejaVuSans-Bold-68" d="M 4056 2131 
L 4056 0 
L 2931 0 
L 2931 347 
L 2931 1625 
Q 2931 2084 2911 2256 
Q 2891 2428 2841 2509 
Q 2775 2619 2662 2680 
Q 2550 2741 2406 2741 
Q 2056 2741 1856 2470 
Q 1656 2200 1656 1722 
L 1656 0 
L 538 0 
L 538 4863 
L 1656 4863 
L 1656 2988 
Q 1909 3294 2193 3439 
Q 2478 3584 2822 3584 
Q 3428 3584 3742 3212 
Q 4056 2841 4056 2131 
z
" transform="scale(0.015625)"/>
      </defs>
      <use xlink:href="#DejaVuSans-Bold-34"/>
      <use xlink:href="#DejaVuSans-Bold-38" x="69.580078"/>
      <use xlink:href="#DejaVuSans-Bold-56" x="139.160156"/>
      <use xlink:href="#DejaVuSans-Bold-2f" x="216.552734"/>
      <use xlink:href="#DejaVuSans-Bold-32" x="253.076172"/>
      <use xlink:href="#DejaVuSans-Bold-39" x="322.65625"/>
      <use xlink:href="#DejaVuSans-Bold-41" x="392.236328"/>
      <use xlink:href="#DejaVuSans-Bold-68" x="469.628906"/>
     </g>
    </g>
   </g>
   <g id="text_22">
    <g clip-path="url(#pdb17f4df69)">
     <!-- Tattu 48V 29Ah -->
     <g transform="translate(50.087334 235.999633) scale(0.06 -0.06)">
      <defs>
       <path id="DejaVuSans-Bold-54" d="M 31 4666 
L 4331 4666 
L 4331 3756 
L 2784 3756 
L 2784 0 
L 1581 0 
L 1581 3756 
L 31 3756 
L 31 4666 
z
" transform="scale(0.015625)"/>
      </defs>
      <use xlink:href="#DejaVuSans-Bold-54"/>
      <use xlink:href="#DejaVuSans-Bold-61" x="55.337891"/>
      <use xlink:href="#DejaVuSans-Bold-74" x="122.818359"/>
      <use xlink:href="#DejaVuSans-Bold-74" x="170.621094"/>
      <use xlink:href="#DejaVuSans-Bold-75" x="218.423828"/>
      <use xlink:href="#DejaVuSans-Bold-20" x="289.615234"/>
      <use xlink:href="#DejaVuSans-Bold-34" x="324.429688"/>
      <use xlink:href="#DejaVuSans-Bold-38" x="394.009766"/>
      <use xlink:href="#DejaVuSans-Bold-56" x="463.589844"/>
      <use xlink:href="#DejaVuSans-Bold-20" x="540.982422"/>
      <use xlink:href="#DejaVuSans-Bold-32" x="575.796875"/>
      <use xlink:href="#DejaVuSans-Bold-39" x="645.376953"/>
      <use xlink:href="#DejaVuSans-Bold-41" x="714.957031"/>
      <use xlink:href="#DejaVuSans-Bold-68" x="792.349609"/>
     </g>
    </g>
    <g clip-path="url(#pdb17f4df69)">
     <!-- Battery Pack -->
     <g transform="translate(54.381552 242.71832) scale(0.06 -0.06)">
      <use xlink:href="#DejaVuSans-Bold-42"/>
      <use xlink:href="#DejaVuSans-Bold-61" x="76.220703"/>
      <use xlink:href="#DejaVuSans-Bold-74" x="143.701172"/>
      <use xlink:href="#DejaVuSans-Bold-74" x="191.503906"/>
      <use xlink:href="#DejaVuSans-Bold-65" x="239.306641"/>
      <use xlink:href="#DejaVuSans-Bold-72" x="307.128906"/>
      <use xlink:href="#DejaVuSans-Bold-79" x="356.445312"/>
      <use xlink:href="#DejaVuSans-Bold-20" x="421.630859"/>
      <use xlink:href="#DejaVuSans-Bold-50" x="456.445312"/>
      <use xlink:href="#DejaVuSans-Bold-61" x="527.111328"/>
      <use xlink:href="#DejaVuSans-Bold-63" x="594.591797"/>
      <use xlink:href="#DejaVuSans-Bold-6b" x="653.869141"/>
     </g>
    </g>
   </g>
   <g id="text_23">
    <g clip-path="url(#pdb17f4df69)">
     <!-- SYS-003: -->
     <g transform="translate(435.900768 513.597006) scale(0.06 -0.06)">
      <use xlink:href="#DejaVuSans-Bold-53"/>
      <use xlink:href="#DejaVuSans-Bold-59" x="72.021484"/>
      <use xlink:href="#DejaVuSans-Bold-53" x="144.433594"/>
      <use xlink:href="#DejaVuSans-Bold-2d" x="216.455078"/>
      <use xlink:href="#DejaVuSans-Bold-30" x="257.958984"/>
      <use xlink:href="#DejaVuSans-Bold-30" x="327.539062"/>
      <use xlink:href="#DejaVuSans-Bold-33" x="397.119141"/>
      <use xlink:href="#DejaVuSans-Bold-3a" x="466.699219"/>
     </g>
    </g>
    <g clip-path="url(#pdb17f4df69)">
     <!-- Maximum Speed -->
     <g transform="translate(423.169987 520.315694) scale(0.06 -0.06)">
      <defs>
       <path id="DejaVuSans-Bold-78" d="M 1422 1791 
L 159 3500 
L 1344 3500 
L 2059 2463 
L 2784 3500 
L 3969 3500 
L 2706 1797 
L 4031 0 
L 2847 0 
L 2059 1106 
L 1281 0 
L 97 0 
L 1422 1791 
z
" transform="scale(0.015625)"/>
      </defs>
      <use xlink:href="#DejaVuSans-Bold-4d"/>
      <use xlink:href="#DejaVuSans-Bold-61" x="99.511719"/>
      <use xlink:href="#DejaVuSans-Bold-78" x="166.992188"/>
      <use xlink:href="#DejaVuSans-Bold-69" x="231.494141"/>
      <use xlink:href="#DejaVuSans-Bold-6d" x="265.771484"/>
      <use xlink:href="#DejaVuSans-Bold-75" x="369.970703"/>
      <use xlink:href="#DejaVuSans-Bold-6d" x="441.162109"/>
      <use xlink:href="#DejaVuSans-Bold-20" x="545.361328"/>
      <use xlink:href="#DejaVuSans-Bold-53" x="580.175781"/>
      <use xlink:href="#DejaVuSans-Bold-70" x="652.197266"/>
      <use xlink:href="#DejaVuSans-Bold-65" x="723.779297"/>
      <use xlink:href="#DejaVuSans-Bold-65" x="791.601562"/>
      <use xlink:href="#DejaVuSans-Bold-64" x="859.423828"/>
     </g>
    </g>
   </g>
   <g id="text_24">
    <g clip-path="url(#pdb17f4df69)">
     <!-- Folding Prop 18x6.1 -->
     <g transform="translate(563.365392 464.951924) scale(0.06 -0.06)">
      <defs>
       <path id="DejaVuSans-Bold-31" d="M 750 831 
L 1813 831 
L 1813 3847 
L 722 3622 
L 722 4441 
L 1806 4666 
L 2950 4666 
L 2950 831 
L 4013 831 
L 4013 0 
L 750 0 
L 750 831 
z
" transform="scale(0.015625)"/>
       <path id="DejaVuSans-Bold-36" d="M 2316 2303 
Q 2000 2303 1842 2098 
Q 1684 1894 1684 1484 
Q 1684 1075 1842 870 
Q 2000 666 2316 666 
Q 2634 666 2792 870 
Q 2950 1075 2950 1484 
Q 2950 1894 2792 2098 
Q 2634 2303 2316 2303 
z
M 3803 4544 
L 3803 3681 
Q 3506 3822 3243 3889 
Q 2981 3956 2731 3956 
Q 2194 3956 1894 3657 
Q 1594 3359 1544 2772 
Q 1750 2925 1990 3001 
Q 2231 3078 2516 3078 
Q 3231 3078 3670 2659 
Q 4109 2241 4109 1563 
Q 4109 813 3618 361 
Q 3128 -91 2303 -91 
Q 1394 -91 895 523 
Q 397 1138 397 2266 
Q 397 3422 980 4083 
Q 1563 4744 2578 4744 
Q 2900 4744 3203 4694 
Q 3506 4644 3803 4544 
z
" transform="scale(0.015625)"/>
       <path id="DejaVuSans-Bold-2e" d="M 653 1209 
L 1778 1209 
L 1778 0 
L 653 0 
L 653 1209 
z
" transform="scale(0.015625)"/>
      </defs>
      <use xlink:href="#DejaVuSans-Bold-46"/>
      <use xlink:href="#DejaVuSans-Bold-6f" x="64.310547"/>
      <use xlink:href="#DejaVuSans-Bold-6c" x="133.011719"/>
      <use xlink:href="#DejaVuSans-Bold-64" x="167.289062"/>
      <use xlink:href="#DejaVuSans-Bold-69" x="238.871094"/>
      <use xlink:href="#DejaVuSans-Bold-6e" x="273.148438"/>
      <use xlink:href="#DejaVuSans-Bold-67" x="344.339844"/>
      <use xlink:href="#DejaVuSans-Bold-20" x="415.921875"/>
      <use xlink:href="#DejaVuSans-Bold-50" x="450.736328"/>
      <use xlink:href="#DejaVuSans-Bold-72" x="524.027344"/>
      <use xlink:href="#DejaVuSans-Bold-6f" x="573.34375"/>
      <use xlink:href="#DejaVuSans-Bold-70" x="642.044922"/>
      <use xlink:href="#DejaVuSans-Bold-20" x="713.626953"/>
      <use xlink:href="#DejaVuSans-Bold-31" x="748.441406"/>
      <use xlink:href="#DejaVuSans-Bold-38" x="818.021484"/>
      <use xlink:href="#DejaVuSans-Bold-78" x="887.601562"/>
      <use xlink:href="#DejaVuSans-Bold-36" x="952.103516"/>
      <use xlink:href="#DejaVuSans-Bold-2e" x="1021.683594"/>
      <use xlink:href="#DejaVuSans-Bold-31" x="1059.671875"/>
     </g>
    </g>
   </g>
   <g id="text_25">
    <g clip-path="url(#pdb17f4df69)">
     <!-- T-Motor U8 II KV150 -->
     <g transform="translate(38.303217 357.214723) scale(0.06 -0.06)">
      <defs>
       <path id="DejaVuSans-Bold-55" d="M 588 4666 
L 1791 4666 
L 1791 1869 
Q 1791 1291 1980 1042 
Q 2169 794 2597 794 
Q 3028 794 3217 1042 
Q 3406 1291 3406 1869 
L 3406 4666 
L 4609 4666 
L 4609 1869 
Q 4609 878 4112 393 
Q 3616 -91 2597 -91 
Q 1581 -91 1084 393 
Q 588 878 588 1869 
L 588 4666 
z
" transform="scale(0.015625)"/>
       <path id="DejaVuSans-Bold-49" d="M 588 4666 
L 1791 4666 
L 1791 0 
L 588 0 
L 588 4666 
z
" transform="scale(0.015625)"/>
       <path id="DejaVuSans-Bold-4b" d="M 588 4666 
L 1791 4666 
L 1791 2963 
L 3525 4666 
L 4922 4666 
L 2675 2456 
L 5153 0 
L 3647 0 
L 1791 1838 
L 1791 0 
L 588 0 
L 588 4666 
z
" transform="scale(0.015625)"/>
      </defs>
      <use xlink:href="#DejaVuSans-Bold-54"/>
      <use xlink:href="#DejaVuSans-Bold-2d" x="53.462891"/>
      <use xlink:href="#DejaVuSans-Bold-4d" x="94.966797"/>
      <use xlink:href="#DejaVuSans-Bold-6f" x="194.478516"/>
      <use xlink:href="#DejaVuSans-Bold-74" x="263.179688"/>
      <use xlink:href="#DejaVuSans-Bold-6f" x="310.982422"/>
      <use xlink:href="#DejaVuSans-Bold-72" x="379.683594"/>
      <use xlink:href="#DejaVuSans-Bold-20" x="429"/>
      <use xlink:href="#DejaVuSans-Bold-55" x="463.814453"/>
      <use xlink:href="#DejaVuSans-Bold-38" x="545.015625"/>
      <use xlink:href="#DejaVuSans-Bold-20" x="614.595703"/>
      <use xlink:href="#DejaVuSans-Bold-49" x="649.410156"/>
      <use xlink:href="#DejaVuSans-Bold-49" x="686.617188"/>
      <use xlink:href="#DejaVuSans-Bold-20" x="723.824219"/>
      <use xlink:href="#DejaVuSans-Bold-4b" x="758.638672"/>
      <use xlink:href="#DejaVuSans-Bold-56" x="836.128906"/>
      <use xlink:href="#DejaVuSans-Bold-31" x="913.521484"/>
      <use xlink:href="#DejaVuSans-Bold-35" x="983.101562"/>
      <use xlink:href="#DejaVuSans-Bold-30" x="1052.681641"/>
     </g>
    </g>
   </g>
   <g id="text_26">
    <g clip-path="url(#pdb17f4df69)">
     <!-- TP-002: -->
     <g transform="translate(483.593506 75.630439) scale(0.06 -0.06)">
      <use xlink:href="#DejaVuSans-Bold-54"/>
      <use xlink:href="#DejaVuSans-Bold-50" x="68.212891"/>
      <use xlink:href="#DejaVuSans-Bold-2d" x="139.753906"/>
      <use xlink:href="#DejaVuSans-Bold-30" x="181.257812"/>
      <use xlink:href="#DejaVuSans-Bold-30" x="250.837891"/>
      <use xlink:href="#DejaVuSans-Bold-32" x="320.417969"/>
      <use xlink:href="#DejaVuSans-Bold-3a" x="389.998047"/>
     </g>
    </g>
    <g clip-path="url(#pdb17f4df69)">
     <!-- Endurance Test -->
     <g transform="translate(470.6246 82.349127) scale(0.06 -0.06)">
      <use xlink:href="#DejaVuSans-Bold-45"/>
      <use xlink:href="#DejaVuSans-Bold-6e" x="68.310547"/>
      <use xlink:href="#DejaVuSans-Bold-64" x="139.501953"/>
      <use xlink:href="#DejaVuSans-Bold-75" x="211.083984"/>
      <use xlink:href="#DejaVuSans-Bold-72" x="282.275391"/>
      <use xlink:href="#DejaVuSans-Bold-61" x="331.591797"/>
      <use xlink:href="#DejaVuSans-Bold-6e" x="399.072266"/>
      <use xlink:href="#DejaVuSans-Bold-63" x="470.263672"/>
      <use xlink:href="#DejaVuSans-Bold-65" x="529.541016"/>
      <use xlink:href="#DejaVuSans-Bold-20" x="597.363281"/>
      <use xlink:href="#DejaVuSans-Bold-54" x="632.177734"/>
      <use xlink:href="#DejaVuSans-Bold-65" x="687.140625"/>
      <use xlink:href="#DejaVuSans-Bold-73" x="754.962891"/>
      <use xlink:href="#DejaVuSans-Bold-74" x="814.484375"/>
     </g>
    </g>
   </g>
   <g id="text_27">
    <!-- DeepLynx Graph: SYS-004: Endurance -->
    <g transform="translate(252.109687 16.318125) scale(0.12 -0.12)">
     <defs>
      <path id="DejaVuSans-Bold-4c" d="M 588 4666 
L 1791 4666 
L 1791 909 
L 3903 909 
L 3903 0 
L 588 0 
L 588 4666 
z
" transform="scale(0.015625)"/>
      <path id="DejaVuSans-Bold-47" d="M 4781 347 
Q 4331 128 3847 18 
Q 3363 -91 2847 -91 
Q 1681 -91 1000 561 
Q 319 1213 319 2328 
Q 319 3456 1012 4103 
Q 1706 4750 2913 4750 
Q 3378 4750 3804 4662 
Q 4231 4575 4609 4403 
L 4609 3438 
Q 4219 3659 3833 3768 
Q 3447 3878 3059 3878 
Q 2341 3878 1952 3476 
Q 1563 3075 1563 2328 
Q 1563 1588 1938 1184 
Q 2313 781 3003 781 
Q 3191 781 3352 804 
Q 3513 828 3641 878 
L 3641 1784 
L 2906 1784 
L 2906 2591 
L 4781 2591 
L 4781 347 
z
" transform="scale(0.015625)"/>
     </defs>
     <use xlink:href="#DejaVuSans-Bold-44"/>
     <use xlink:href="#DejaVuSans-Bold-65" x="83.007812"/>
     <use xlink:href="#DejaVuSans-Bold-65" x="150.830078"/>
     <use xlink:href="#DejaVuSans-Bold-70" x="218.652344"/>
     <use xlink:href="#DejaVuSans-Bold-4c" x="290.234375"/>
     <use xlink:href="#DejaVuSans-Bold-79" x="347.205078"/>
     <use xlink:href="#DejaVuSans-Bold-6e" x="412.390625"/>
     <use xlink:href="#DejaVuSans-Bold-78" x="483.582031"/>
     <use xlink:href="#DejaVuSans-Bold-20" x="548.083984"/>
     <use xlink:href="#DejaVuSans-Bold-47" x="582.898438"/>
     <use xlink:href="#DejaVuSans-Bold-72" x="664.978516"/>
     <use xlink:href="#DejaVuSans-Bold-61" x="714.294922"/>
     <use xlink:href="#DejaVuSans-Bold-70" x="781.775391"/>
     <use xlink:href="#DejaVuSans-Bold-68" x="853.357422"/>
     <use xlink:href="#DejaVuSans-Bold-3a" x="924.548828"/>
     <use xlink:href="#DejaVuSans-Bold-20" x="964.539062"/>
     <use xlink:href="#DejaVuSans-Bold-53" x="999.353516"/>
     <use xlink:href="#DejaVuSans-Bold-59" x="1071.375"/>
     <use xlink:href="#DejaVuSans-Bold-53" x="1143.787109"/>
     <use xlink:href="#DejaVuSans-Bold-2d" x="1215.808594"/>
     <use xlink:href="#DejaVuSans-Bold-30" x="1257.3125"/>
     <use xlink:href="#DejaVuSans-Bold-30" x="1326.892578"/>
     <use xlink:href="#DejaVuSans-Bold-34" x="1396.472656"/>
     <use xlink:href="#DejaVuSans-Bold-3a" x="1466.052734"/>
     <use xlink:href="#DejaVuSans-Bold-20" x="1506.042969"/>
     <use xlink:href="#DejaVuSans-Bold-45" x="1540.857422"/>
     <use xlink:href="#DejaVuSans-Bold-6e" x="1609.167969"/>
     <use xlink:href="#DejaVuSans-Bold-64" x="1680.359375"/>
     <use xlink:href="#DejaVuSans-Bold-75" x="1751.941406"/>
     <use xlink:href="#DejaVuSans-Bold-72" x="1823.132812"/>
     <use xlink:href="#DejaVuSans-Bold-61" x="1872.449219"/>
     <use xlink:href="#DejaVuSans-Bold-6e" x="1939.929688"/>
     <use xlink:href="#DejaVuSans-Bold-63" x="2011.121094"/>
     <use xlink:href="#DejaVuSans-Bold-65" x="2070.398438"/>
    </g>
   </g>
   <g id="legend_1">
    <g id="patch_28">
     <path d="M 12.1 67.742187 
L 62.5 67.742187 
Q 63.9 67.742187 63.9 66.342187 
L 63.9 36.218125 
Q 63.9 34.818125 62.5 34.818125 
L 12.1 34.818125 
Q 10.7 34.818125 10.7 36.218125 
L 10.7 66.342187 
Q 10.7 67.742187 12.1 67.742187 
z
" style="fill: #ffffff; opacity: 0.8; stroke: #cccccc; stroke-linejoin: miter"/>
    </g>
    <g id="patch_29">
     <path d="M 13.5 42.937031 
L 27.5 42.937031 
L 27.5 38.037031 
L 13.5 38.037031 
z
" style="fill: #7c3aed; stroke: #7c3aed; stroke-linejoin: miter"/>
    </g>
    <g id="text_28">
     <!-- Root -->
     <g transform="translate(33.1 42.937031) scale(0.07 -0.07)">
      <defs>
       <path id="DejaVuSans-52" d="M 2841 2188 
Q 3044 2119 3236 1894 
Q 3428 1669 3622 1275 
L 4263 0 
L 3584 0 
L 2988 1197 
Q 2756 1666 2539 1819 
Q 2322 1972 1947 1972 
L 1259 1972 
L 1259 0 
L 628 0 
L 628 4666 
L 2053 4666 
Q 2853 4666 3247 4331 
Q 3641 3997 3641 3322 
Q 3641 2881 3436 2590 
Q 3231 2300 2841 2188 
z
M 1259 4147 
L 1259 2491 
L 2053 2491 
Q 2509 2491 2742 2702 
Q 2975 2913 2975 3322 
Q 2975 3731 2742 3939 
Q 2509 4147 2053 4147 
L 1259 4147 
z
" transform="scale(0.015625)"/>
      </defs>
      <use xlink:href="#DejaVuSans-52"/>
      <use xlink:href="#DejaVuSans-6f" x="64.982422"/>
      <use xlink:href="#DejaVuSans-6f" x="126.164062"/>
      <use xlink:href="#DejaVuSans-74" x="187.345703"/>
     </g>
    </g>
    <g id="patch_30">
     <path d="M 13.5 53.211719 
L 27.5 53.211719 
L 27.5 48.311719 
L 13.5 48.311719 
z
" style="fill: #3b82f6; stroke: #3b82f6; stroke-linejoin: miter"/>
    </g>
    <g id="text_29">
     <!-- Depth 1 -->
     <g transform="translate(33.1 53.211719) scale(0.07 -0.07)">
      <defs>
       <path id="DejaVuSans-44" d="M 1259 4147 
L 1259 519 
L 2022 519 
Q 2988 519 3436 956 
Q 3884 1394 3884 2338 
Q 3884 3275 3436 3711 
Q 2988 4147 2022 4147 
L 1259 4147 
z
M 628 4666 
L 1925 4666 
Q 3281 4666 3915 4102 
Q 4550 3538 4550 2338 
Q 4550 1131 3912 565 
Q 3275 0 1925 0 
L 628 0 
L 628 4666 
z
" transform="scale(0.015625)"/>
       <path id="DejaVuSans-68" d="M 3513 2113 
L 3513 0 
L 2938 0 
L 2938 2094 
Q 2938 2591 2744 2837 
Q 2550 3084 2163 3084 
Q 1697 3084 1428 2787 
Q 1159 2491 1159 1978 
L 1159 0 
L 581 0 
L 581 4863 
L 1159 4863 
L 1159 2956 
Q 1366 3272 1645 3428 
Q 1925 3584 2291 3584 
Q 2894 3584 3203 3211 
Q 3513 2838 3513 2113 
z
" transform="scale(0.015625)"/>
       <path id="DejaVuSans-20" transform="scale(0.015625)"/>
       <path id="DejaVuSans-31" d="M 794 531 
L 1825 531 
L 1825 4091 
L 703 3866 
L 703 4441 
L 1819 4666 
L 2450 4666 
L 2450 531 
L 3481 531 
L 3481 0 
L 794 0 
L 794 531 
z
" transform="scale(0.015625)"/>
      </defs>
      <use xlink:href="#DejaVuSans-44"/>
      <use xlink:href="#DejaVuSans-65" x="77.001953"/>
      <use xlink:href="#DejaVuSans-70" x="138.525391"/>
      <use xlink:href="#DejaVuSans-74" x="202.001953"/>
      <use xlink:href="#DejaVuSans-68" x="241.210938"/>
      <use xlink:href="#DejaVuSans-20" x="304.589844"/>
      <use xlink:href="#DejaVuSans-31" x="336.376953"/>
     </g>
    </g>
    <g id="patch_31">
     <path d="M 13.5 63.486406 
L 27.5 63.486406 
L 27.5 58.586406 
L 13.5 58.586406 
z
" style="fill: #f97316; stroke: #f97316; stroke-linejoin: miter"/>
    </g>
    <g id="text_30">
     <!-- Depth 2 -->
     <g transform="translate(33.1 63.486406) scale(0.07 -0.07)">
      <defs>
       <path id="DejaVuSans-32" d="M 1228 531 
L 3431 531 
L 3431 0 
L 469 0 
L 469 531 
Q 828 903 1448 1529 
Q 2069 2156 2228 2338 
Q 2531 2678 2651 2914 
Q 2772 3150 2772 3378 
Q 2772 3750 2511 3984 
Q 2250 4219 1831 4219 
Q 1534 4219 1204 4116 
Q 875 4013 500 3803 
L 500 4441 
Q 881 4594 1212 4672 
Q 1544 4750 1819 4750 
Q 2544 4750 2975 4387 
Q 3406 4025 3406 3419 
Q 3406 3131 3298 2873 
Q 3191 2616 2906 2266 
Q 2828 2175 2409 1742 
Q 1991 1309 1228 531 
z
" transform="scale(0.015625)"/>
      </defs>
      <use xlink:href="#DejaVuSans-44"/>
      <use xlink:href="#DejaVuSans-65" x="77.001953"/>
      <use xlink:href="#DejaVuSans-70" x="138.525391"/>
      <use xlink:href="#DejaVuSans-74" x="202.001953"/>
      <use xlink:href="#DejaVuSans-68" x="241.210938"/>
      <use xlink:href="#DejaVuSans-20" x="304.589844"/>
      <use xlink:href="#DejaVuSans-32" x="336.376953"/>
     </g>
    </g>
   </g>
  </g>
 </g>
 <defs>
  <clipPath id="pdb17f4df69">
   <rect x="7.2" y="31.318125" width="746.4" height="530.28"/>
  </clipPath>
 </defs>
</svg>
